<svg xmlns="http://www.w3.org/2000/svg" viewBox="0 2 140 242"><path stroke="white" stroke-width="3" fill="#822a7c" d="M106.261 4.95c2.603.088 4.822.184 6.723.286 1.901.102 3.483.211 4.81.327 1.326.115 2.397.238 3.276.366.88.13 1.567.265 2.125.407.559.142.989.29 1.354.446.366.155.666.317.964.486a42.875 42.875 0 0 1 2.313 2.993 40.273 40.273 0 0 1 1.973 3.102 36.794 36.794 0 0 1 2.325 4.858 35.888 35.888 0 0 1 2.179 8.642 38.346 38.346 0 0 1 .279 3.648 41.76 41.76 0 0 1-.06 3.757 403.097 403.097 0 0 0-6.433 10.855 385.69 385.69 0 0 0-14.376 27.71 381.386 381.386 0 0 0-5.068 11.312 367.944 367.944 0 0 0-4.677 11.443 375.237 375.237 0 0 0-4.287 11.574 369.643 369.643 0 0 0-5.7 17.606 52.752 52.752 0 0 1-1.799-1.932 50.362 50.362 0 0 1-1.664-1.979 45.367 45.367 0 0 1-2.92-4.097 42.215 42.215 0 0 1-2.378-4.283 41.254 41.254 0 0 1-1.836-4.47 40.49 40.49 0 0 1-1.292-4.655 42.028 42.028 0 0 1-.75-4.842 45.02 45.02 0 0 1-.172-2.49 47.263 47.263 0 0 1-.036-2.538c.011-.853.044-1.715.1-2.584.056-.869.135-1.745.236-2.63l.406-1.617.406-1.617.425-1.61.424-1.61.442-1.604.442-1.604.46-1.597.46-1.597.479-1.59.478-1.59.496-1.585.496-1.583.514-1.577.514-1.578.533-1.57.532-1.571-.063-.094-.062-.093-.063-.094-.063-.094-.062-.094-.063-.093-.062-.094-.063-.094-.062-.094-.063-.093-.063-.094-.062-.094-.063-.094-.062-.093-.063-.094-.062-.094a118.426 118.426 0 0 0-6.534 4.57 115.295 115.295 0 0 0-8.131 6.717 113.673 113.673 0 0 0-9.23 9.396 115.83 115.83 0 0 0-5.038 6.171c-.54.708-1.072 1.423-1.597 2.146a187.271 187.271 0 0 0-6.224 8.377 171.958 171.958 0 0 0-5.573 8.477 159.41 159.41 0 0 0-4.923 8.577 148.767 148.767 0 0 0-4.272 8.676 141.1 141.1 0 0 0-3.622 8.776 135.205 135.205 0 0 0-2.971 8.876 131.347 131.347 0 0 0-2.321 8.975 129.575 129.575 0 0 0-2.69 18.25 131.822 131.822 0 0 0-.37 9.275c-.015 3.108.08 6.233.281 9.374.202 3.141.513 6.299.932 9.474.419 3.175.946 6.366 1.582 9.574.636 3.208 1.38 6.432 2.233 9.673a174.202 174.202 0 0 0 2.883 9.773 190.275 190.275 0 0 0 3.533 9.873 6.607 6.607 0 0 1-.6.662 5.606 5.606 0 0 1-.645.526 4.408 4.408 0 0 1-1.046.536 4.306 4.306 0 0 1-1.142.23 4.845 4.845 0 0 1-.815-.016 5.845 5.845 0 0 1-.857-.151 7.46 7.46 0 0 1-.9-.287 69.89 69.89 0 0 1-4.08-3.728 65.362 65.362 0 0 1-3.683-3.966 61.433 61.433 0 0 1-6.174-8.647 61.314 61.314 0 0 1-4.587-9.602 64.516 64.516 0 0 1-1.697-5.159 68.899 68.899 0 0 1-1.3-5.398 191.795 191.795 0 0 1-2.347-12.295 183.663 183.663 0 0 1-1.497-12.247 177.604 177.604 0 0 1-.648-12.198 174.195 174.195 0 0 1 .62-18.206A174.124 174.124 0 0 1 6 134.246a176.891 176.891 0 0 1 2.323-12.028 182.49 182.49 0 0 1 3.174-11.979c.6-1.992 1.234-3.983 1.904-5.971a142.508 142.508 0 0 1 2.178-4.762 137.792 137.792 0 0 1 6.163-11.422 135.116 135.116 0 0 1 13.681-18.816l2.266-2.155 2.266-2.154 2.266-2.155 2.266-2.155 2.278-2.135 2.277-2.135 2.278-2.135 2.278-2.135 2.289-2.115 2.29-2.115 2.289-2.115 2.289-2.115 2.301-2.095 2.3-2.096 2.302-2.095 2.3-2.095-.806-.148-.807-.147-.81-.132-.808-.133-.81-.116-.812-.117-.812-.102-.812-.101-.815-.086-.814-.086-.816-.07-.816-.072-.817-.055-.818-.055-.82-.04-.819-.04a16.623 16.623 0 0 1-1.502-.625 14.882 14.882 0 0 1-1.376-.75 13.718 13.718 0 0 1-1.251-.875 12.961 12.961 0 0 1-1.642-1.547 12.9 12.9 0 0 1-.939-1.187 13.626 13.626 0 0 1-.813-1.313 14.862 14.862 0 0 1-.688-1.437c-.104-.25-.203-.506-.297-.766a39.192 39.192 0 0 1-1.316-3.135 37.847 37.847 0 0 1-1.233-4.027 37.604 37.604 0 0 1-.955-5.838l3.988-.31 3.987-.31 3.974-.365 3.975-.365 3.96-.418 3.962-.42 3.948-.472 3.948-.473 3.935-.527 3.935-.527 3.921-.581 3.922-.582 3.909-.635 3.908-.636 3.895-.69s-2.443-.097.159-.008Z"/></svg>