<svg xmlns="http://www.w3.org/2000/svg" width="159.213" height="171.587"><defs><clipPath id="a" clipPathUnits="userSpaceOnUse"><path d="M424.656 560.535v15.399c0 1.652 1.344 3 2.996 3h14.836a3.005 3.005 0 0 0 2.996-3v-15.399a2.996 2.996 0 0 0-2.996-2.996h-14.836a2.994 2.994 0 0 0-2.996 2.996m150.16 2.735v10.261c0 1.653 1.344 3 2.993 3h9.808a3.003 3.003 0 0 0 2.992-3V563.27c0-1.661-1.347-3-2.992-3h-9.808a2.996 2.996 0 0 0-2.993 3m-82.179-10.93v15.41c0 1.652 1.343 3 2.992 3h14.836a2.999 2.999 0 0 0 2.988-3v-15.41a2.99 2.99 0 0 0-2.988-2.988h-14.836a2.993 2.993 0 0 0-2.992 2.988m87.402-48.563a7.202 7.202 0 0 0-7.207 7.207v.313c0 3.973 3.223 7.195 7.207 7.195 3.977 0 7.203-3.222 7.203-7.195v-.313a7.203 7.203 0 0 0-7.203-7.207m-43.637 13.836a7.205 7.205 0 0 0-7.207 7.207v.313c0 3.976 3.227 7.199 7.207 7.199a7.2 7.2 0 0 0 7.203-7.199v-.313a7.2 7.2 0 0 0-7.203-7.207m144.61 378.711c-19.27 0-61.055-14.804-62.727-58.492-1.328-34.762 27.5-63.336 62.285-63.336h140.274c6.164 0 12.297-1.988 16.886-6.113 6.786-6.113 9.571-15.09 7.606-23.731-10.977-48.316-33.711-75.246-33.984-75.562-10.164-12.453-21.231-23.145-32.899-31.797-14.64-10.871-30.215-19.492-46.262-25.645-16.531-6.347-34.101-10.949-52.207-13.683a384.447 384.447 0 0 0-57.05-4.258c-80.235 0-134.075 24.863-134.754 25.176l-2.258.949a10.472 10.472 0 0 0-6.379 9.414c.02 4.578-3.703 8.328-8.289 8.348l-20.512.078h-.043a9.116 9.116 0 0 1-6.461-2.664 9.1 9.1 0 0 1-2.695-6.496v-15.711c0-6.446-5.223-11.68-11.68-11.68h-20.16c-5.648 0-10.23 4.578-10.23 10.234v8.165a2.993 2.993 0 0 0 2.992 2.996h9.937c4.594 0 8.325 3.734 8.325 8.332l-.008 39.484a11.159 11.159 0 0 1-11.125 11.168h-40.246c-5.332 0-10.231-3.586-11.246-8.816-1.368-7.036 4.007-13.215 10.8-13.215l19.961.031c7.782 0 10.184.02 10.184-6.742v-5.215a3 3 0 0 0-2.996-2.996h-9.93a8.31 8.31 0 0 1-8.316-8.32v-32.11a3.003 3.003 0 0 0-3-2.996h-9.934c-4.594 0-8.324-3.723-8.324-8.32V569.5c0-6.66 5.461-12.121 12.125-12.121h1.23c4.594 0 8.325 3.73 8.325 8.332v10.391a2.997 2.997 0 0 0 2.988 2.996h14.836a3.002 3.002 0 0 0 2.996-2.996v-15.403a2.994 2.994 0 0 0-2.996-2.996h-9.93a8.313 8.313 0 0 1-8.316-8.32v-.449c0-2.61 1.183-5.071 3.25-6.653a412.05 412.05 0 0 1 26.672-18.73c2.617-1.699 5.82-1.805 8.566-.301 2.867 1.57 4.426 4.824 4.43 8.094l.004 1.328c0 1.652 1.339 3 2.988 3h14.836a3.002 3.002 0 0 0 2.992-3V509.02c0-3.165 1.742-6.004 4.656-7.489l13.84-6.281a7.967 7.967 0 0 1 7.699.586 7.957 7.957 0 0 1 3.649 6.621c.011 1.719 1.269 3.145 2.992 3.145h14.836a2.99 2.99 0 0 0 2.992-2.989V487.75c0-3.555 2.266-6.777 5.629-7.918 39.93-13.488 82.019-20.344 125.098-20.344 53.234 0 107.296 9.602 160.754 28.535 46.179 17.461 95.605 42.688 144.089 108.547 39.368 53.461 66.895 145.344 67.051 223.657.078 41.871-33.562 76.097-75.437 76.097z"/></clipPath><clipPath id="c" clipPathUnits="userSpaceOnUse"><path d="M380.465 704.859v-6.398a8.14 8.14 0 0 1 8.14-8.141c4.497 0 8.133 3.649 8.133 8.141v6.398c0 4.5-3.636 8.137-8.133 8.137-4.5 0-8.14-3.637-8.14-8.137"/></clipPath><clipPath id="e" clipPathUnits="userSpaceOnUse"><path d="M380.465 704.859v-6.398a8.14 8.14 0 0 1 8.14-8.141c4.497 0 8.133 3.649 8.133 8.141v6.398c0 4.5-3.636 8.137-8.133 8.137-4.5 0-8.14-3.637-8.14-8.137"/></clipPath><clipPath id="f" clipPathUnits="userSpaceOnUse"><path d="m390.297 720.961 17.531-21.66-20.926-16.942-17.527 21.661z"/></clipPath><clipPath id="h" clipPathUnits="userSpaceOnUse"><path d="M271.559 676.781c0-5.976 4.855-10.84 10.836-10.84 5.972 0 10.839 4.864 10.839 10.84v.356c0 5.972-4.867 10.836-10.839 10.836-5.981 0-10.836-4.864-10.836-11.192"/></clipPath><clipPath id="j" clipPathUnits="userSpaceOnUse"><path d="M271.559 676.781c0-5.976 4.855-10.84 10.836-10.84 5.972 0 10.839 4.864 10.839 10.84v.356c0 5.972-4.867 10.836-10.839 10.836-5.981 0-10.836-4.864-10.836-11.192"/></clipPath><clipPath id="k" clipPathUnits="userSpaceOnUse"><path d="m261.137 680.531 24.769 17.696 17.746-24.84-24.773-17.696z"/></clipPath><clipPath id="m" clipPathUnits="userSpaceOnUse"><path d="M366.676 1081.91c-5.586 0-10.129-4.54-10.129-10.12V1070c0-5.58 4.543-10.12 10.129-10.12h1.429c5.583 0 10.122 4.54 10.122 10.12v1.79c0 5.58-4.539 10.12-10.122 10.12z"/></clipPath><clipPath id="o" clipPathUnits="userSpaceOnUse"><path d="M366.676 1081.91c-5.586 0-10.129-4.54-10.129-10.12V1070c0-5.58 4.543-10.12 10.129-10.12h1.429c5.583 0 10.122 4.54 10.122 10.12v1.79c0 5.58-4.539 10.12-10.122 10.12z"/></clipPath><clipPath id="p" clipPathUnits="userSpaceOnUse"><path d="m371.559 1091.91 16.836-25.26-25.176-16.78-16.84 25.26z"/></clipPath><clipPath id="r" clipPathUnits="userSpaceOnUse"><path d="M162.234 853.781c-8.796 0-15.964-7.164-15.964-15.965v-2.824c0-8.804 7.168-15.957 15.964-15.957h2.262c8.801 0 15.965 7.153 15.965 15.957v2.824c0 8.801-7.164 15.965-15.965 15.965z"/></clipPath><clipPath id="t" clipPathUnits="userSpaceOnUse"><path d="M162.234 853.781c-8.796 0-15.964-7.164-15.964-15.965v-2.824c0-8.804 7.168-15.957 15.964-15.957h2.262c8.801 0 15.965 7.153 15.965 15.957v2.824c0 8.801-7.164 15.965-15.965 15.965z"/></clipPath><clipPath id="u" clipPathUnits="userSpaceOnUse"><path d="M169.941 869.563 196.5 829.73l-39.707-26.476-26.559 39.84Z"/></clipPath><clipPath id="w" clipPathUnits="userSpaceOnUse"><path d="M424.375 1221.23c0-5.97 4.859-10.84 10.836-10.84s10.84 4.87 10.84 10.84v.36c0 5.97-4.863 10.84-10.84 10.84-5.977 0-10.836-4.87-10.836-11.2"/></clipPath><clipPath id="y" clipPathUnits="userSpaceOnUse"><path d="M424.375 1221.23c0-5.97 4.859-10.84 10.836-10.84s10.84 4.87 10.84 10.84v.36c0 5.97-4.863 10.84-10.84 10.84-5.977 0-10.836-4.87-10.836-11.2"/></clipPath><clipPath id="z" clipPathUnits="userSpaceOnUse"><path d="m433.941 1243.19 23.051-20.49-20.512-23.07-23.046 20.48z"/></clipPath><clipPath id="B" clipPathUnits="userSpaceOnUse"><path d="M377.797 1092.42c0-5.98 4.863-10.83 10.836-10.83 5.976 0 10.84 4.85 10.84 10.83v.36c0 5.98-4.864 10.84-10.84 10.84-5.973 0-10.836-4.86-10.836-11.2"/></clipPath><clipPath id="D" clipPathUnits="userSpaceOnUse"><path d="M377.797 1092.42c0-5.98 4.863-10.83 10.836-10.83 5.976 0 10.84 4.85 10.84 10.83v.36c0 5.98-4.864 10.84-10.84 10.84-5.973 0-10.836-4.86-10.836-11.2"/></clipPath><clipPath id="E" clipPathUnits="userSpaceOnUse"><path d="m389.77 1114.39 20.656-22.94-22.93-20.64-20.656 22.95z"/></clipPath><clipPath id="G" clipPathUnits="userSpaceOnUse"><path d="M324.176 1060.2c-5.582 0-10.121-4.54-10.121-10.12v-1.8c0-5.58 4.539-10.12 10.121-10.12h1.429c5.583 0 10.122 4.54 10.122 10.12v1.8c0 5.58-4.539 10.12-10.122 10.12z"/></clipPath><clipPath id="I" clipPathUnits="userSpaceOnUse"><path d="M324.176 1060.2c-5.582 0-10.121-4.54-10.121-10.12v-1.8c0-5.58 4.539-10.12 10.121-10.12h1.429c5.583 0 10.122 4.54 10.122 10.12v1.8c0 5.58-4.539 10.12-10.122 10.12z"/></clipPath><clipPath id="J" clipPathUnits="userSpaceOnUse"><path d="m327.449 1070.73 18.989-24.16-24.114-18.94-18.98 24.16z"/></clipPath><clipPath id="L" clipPathUnits="userSpaceOnUse"><path d="M268.605 1032.78c-5.582 0-10.125-4.53-10.125-10.12v-1.79c0-5.58 4.543-10.12 10.125-10.12h1.43c5.578 0 10.121 4.54 10.121 10.12v1.79c0 5.59-4.543 10.12-10.121 10.12z"/></clipPath><clipPath id="N" clipPathUnits="userSpaceOnUse"><path d="M268.605 1032.78c-5.582 0-10.125-4.53-10.125-10.12v-1.79c0-5.58 4.543-10.12 10.125-10.12h1.43c5.578 0 10.121 4.54 10.121 10.12v1.79c0 5.59-4.543 10.12-10.121 10.12z"/></clipPath><clipPath id="O" clipPathUnits="userSpaceOnUse"><path d="m270.461 1043.56 20.656-22.95-22.933-20.641-20.661 22.951z"/></clipPath><clipPath id="Q" clipPathUnits="userSpaceOnUse"><path d="M399.043 1114.14c0-5.98 4.863-10.84 10.836-10.84 5.98 0 10.848 4.86 10.848 10.84v.36c0 5.97-4.868 10.83-10.848 10.83-5.973 0-10.836-4.86-10.836-11.19"/></clipPath><clipPath id="S" clipPathUnits="userSpaceOnUse"><path d="M399.043 1114.14c0-5.98 4.863-10.84 10.836-10.84 5.98 0 10.848 4.86 10.848 10.84v.36c0 5.97-4.868 10.83-10.848 10.83-5.973 0-10.836-4.86-10.836-11.19"/></clipPath><clipPath id="T" clipPathUnits="userSpaceOnUse"><path d="m407.93 1136 23.633-19.7-19.723-23.67-23.637 19.7z"/></clipPath><clipPath id="V" clipPathUnits="userSpaceOnUse"><path d="M324.176 940.844c-5.582 0-10.121-4.543-10.121-10.125v-15.828c0-5.582 4.539-10.121 10.121-10.121h1.433c5.582 0 10.125 4.539 10.125 10.121l-.007 15.828c0 5.582-4.539 10.125-10.122 10.125z"/></clipPath><clipPath id="X" clipPathUnits="userSpaceOnUse"><path d="M324.176 940.844c-5.582 0-10.121-4.543-10.121-10.125v-15.828c0-5.582 4.539-10.121 10.121-10.121h1.433c5.582 0 10.125 4.539 10.125 10.121l-.007 15.828c0 5.582-4.539 10.125-10.122 10.125z"/></clipPath><clipPath id="Y" clipPathUnits="userSpaceOnUse"><path d="m324.41 951.672 29.34-28.067-28.379-29.667-29.34 28.066z"/></clipPath><clipPath id="aa" clipPathUnits="userSpaceOnUse"><path d="M409.164 1188.47c-5.586 0-10.121-4.55-10.121-10.13v-15.83c0-5.58 4.535-10.12 10.121-10.12h1.438c5.586 0 10.125 4.54 10.125 10.12l-.008 15.83c0 5.58-4.535 10.13-10.121 10.13z"/></clipPath><clipPath id="ac" clipPathUnits="userSpaceOnUse"><path d="M409.164 1188.47c-5.586 0-10.121-4.55-10.121-10.13v-15.83c0-5.58 4.535-10.12 10.121-10.12h1.438c5.586 0 10.125 4.54 10.125 10.12l-.008 15.83c0 5.58-4.535 10.13-10.121 10.13z"/></clipPath><clipPath id="ad" clipPathUnits="userSpaceOnUse"><path d="m409.402 1199.3 29.348-28.07-28.383-29.68-29.347 28.08z"/></clipPath><clipPath id="af" clipPathUnits="userSpaceOnUse"><path d="M324.176 1125.33c-5.586 0-10.129-4.54-10.129-10.12v-15.83c0-5.58 4.543-10.13 10.129-10.13h1.433c5.582 0 10.125 4.55 10.125 10.13l-.007 15.83c0 5.58-4.539 10.12-10.125 10.12z"/></clipPath><clipPath id="ah" clipPathUnits="userSpaceOnUse"><path d="M324.176 1125.33c-5.586 0-10.129-4.54-10.129-10.12v-15.83c0-5.58 4.543-10.13 10.129-10.13h1.433c5.582 0 10.125 4.55 10.125 10.13l-.007 15.83c0 5.58-4.539 10.12-10.125 10.12z"/></clipPath><clipPath id="ai" clipPathUnits="userSpaceOnUse"><path d="m324.41 1136.16 29.34-28.07-28.379-29.66-29.344 28.06z"/></clipPath><clipPath id="ak" clipPathUnits="userSpaceOnUse"><path d="M345.195 1020.17c-7.3 0-13.238-5.94-13.238-13.25v-2.34c0-7.303 5.938-13.236 13.238-13.236h1.879c7.301 0 13.246 5.933 13.246 13.236v2.34c0 7.31-5.945 13.25-13.246 13.25z"/></clipPath><clipPath id="am" clipPathUnits="userSpaceOnUse"><path d="M345.195 1020.17c-7.3 0-13.238-5.94-13.238-13.25v-2.34c0-7.303 5.938-13.236 13.238-13.236h1.879c7.301 0 13.246 5.933 13.246 13.236v2.34c0 7.31-5.945 13.25-13.246 13.25z"/></clipPath><clipPath id="an" clipPathUnits="userSpaceOnUse"><path d="m347.484 1034.29 27.184-29.9-29.879-27.167-27.18 29.907z"/></clipPath><clipPath id="ap" clipPathUnits="userSpaceOnUse"><path d="M289.855 986.422c-5.585 0-10.128-4.535-10.128-10.117v-1.789c0-5.575 4.543-10.118 10.128-10.118h1.43c5.578 0 10.121 4.543 10.121 10.118v1.789c0 5.582-4.543 10.117-10.121 10.117z"/></clipPath><clipPath id="ar" clipPathUnits="userSpaceOnUse"><path d="M289.855 986.422c-5.585 0-10.128-4.535-10.128-10.117v-1.789c0-5.575 4.543-10.118 10.128-10.118h1.43c5.578 0 10.121 4.543 10.121 10.118v1.789c0 5.582-4.543 10.117-10.121 10.117z"/></clipPath><clipPath id="as" clipPathUnits="userSpaceOnUse"><path d="m291.703 997.207 20.66-22.953-22.933-20.637-20.657 22.949z"/></clipPath><clipPath id="au" clipPathUnits="userSpaceOnUse"><path d="M270.84 1092.61c-5.582 0-10.121-4.55-10.121-10.13v-1.79c0-5.58 4.539-10.12 10.121-10.12h1.437c5.578 0 10.121 4.54 10.121 10.12v1.79c0 5.58-4.543 10.13-10.121 10.13z"/></clipPath><clipPath id="aw" clipPathUnits="userSpaceOnUse"><path d="M270.84 1092.61c-5.582 0-10.121-4.55-10.121-10.13v-1.79c0-5.58 4.539-10.12 10.121-10.12h1.437c5.578 0 10.121 4.54 10.121 10.12v1.79c0 5.58-4.543 10.13-10.121 10.13z"/></clipPath><clipPath id="ax" clipPathUnits="userSpaceOnUse"><path d="m272.695 1103.39 20.66-22.96-22.933-20.64-20.66 22.95z"/></clipPath><clipPath id="az" clipPathUnits="userSpaceOnUse"><path d="M281.43 908.949c-7.539 0-13.672-6.133-13.672-13.668v-2.414c0-7.535 6.133-13.672 13.672-13.672h1.933c7.535 0 13.668 6.137 13.668 13.672v2.414c0 7.535-6.133 13.668-13.668 13.668z"/></clipPath><clipPath id="aB" clipPathUnits="userSpaceOnUse"><path d="M281.43 908.949c-7.539 0-13.672-6.133-13.672-13.668v-2.414c0-7.535 6.133-13.672 13.672-13.672h1.933c7.535 0 13.668 6.137 13.668 13.672v2.414c0 7.535-6.133 13.668-13.668 13.668z"/></clipPath><clipPath id="aC" clipPathUnits="userSpaceOnUse"><path d="m252.887 894.074 29.511 29.512 29.512-29.512-29.512-29.511z"/></clipPath><clipPath id="aE" clipPathUnits="userSpaceOnUse"><path d="M151.813 753.109c-5.586 0-10.122-4.543-10.122-10.125v-1.789c0-5.578 4.536-10.125 10.122-10.125h1.433c5.578 0 10.117 4.547 10.117 10.125v1.789c0 5.582-4.539 10.125-10.117 10.125z"/></clipPath><clipPath id="aG" clipPathUnits="userSpaceOnUse"><path d="M151.813 753.109c-5.586 0-10.122-4.543-10.122-10.125v-1.789c0-5.578 4.536-10.125 10.122-10.125h1.433c5.578 0 10.117 4.547 10.117 10.125v1.789c0 5.582-4.539 10.125-10.117 10.125z"/></clipPath><clipPath id="aH" clipPathUnits="userSpaceOnUse"><path d="m152.742 763.941 21.637-22.074-22.07-21.629-21.633 22.075z"/></clipPath><clipPath id="aJ" clipPathUnits="userSpaceOnUse"><path d="M246.008 836.41c-5.781 0-10.485-4.703-10.485-10.488v-1.852c0-5.781 4.704-10.48 10.485-10.48h1.476c5.789 0 10.489 4.699 10.489 10.48v1.852c0 5.785-4.7 10.488-10.489 10.488z"/></clipPath><clipPath id="aL" clipPathUnits="userSpaceOnUse"><path d="M246.008 836.41c-5.781 0-10.485-4.703-10.485-10.488v-1.852c0-5.781 4.704-10.48 10.485-10.48h1.476c5.789 0 10.489 4.699 10.489 10.48v1.852c0 5.785-4.7 10.488-10.489 10.488z"/></clipPath><clipPath id="aM" clipPathUnits="userSpaceOnUse"><path d="m246.977 847.633 22.402-22.863-22.856-22.403-22.406 22.863Z"/></clipPath><clipPath id="aO" clipPathUnits="userSpaceOnUse"><path d="M314.055 655.422v-.356c0-5.976 4.859-10.839 10.832-10.839 5.98 0 10.847 4.863 10.847 11.195 0 5.973-4.867 10.836-10.847 10.836-5.973 0-10.832-4.863-10.832-10.836"/></clipPath><clipPath id="aQ" clipPathUnits="userSpaceOnUse"><path d="M314.055 655.422v-.356c0-5.976 4.859-10.839 10.832-10.839 5.98 0 10.847 4.863 10.847 11.195 0 5.973-4.867 10.836-10.847 10.836-5.973 0-10.832-4.863-10.832-10.836"/></clipPath><clipPath id="aR" clipPathUnits="userSpaceOnUse"><path d="m303.406 658.082 24.282 18.648 18.683-24.332-24.277-18.64z"/></clipPath><clipPath id="aT" clipPathUnits="userSpaceOnUse"><path d="M250.309 763.625c0-5.977 4.863-10.832 10.839-10.832 5.977 0 10.84 4.855 10.84 10.832v.352c0 5.98-4.863 10.839-10.843 10.839-5.973 0-10.836-4.859-10.836-11.191"/></clipPath><clipPath id="aV" clipPathUnits="userSpaceOnUse"><path d="M250.309 763.625c0-5.977 4.863-10.832 10.839-10.832 5.977 0 10.84 4.855 10.84 10.832v.352c0 5.98-4.863 10.839-10.843 10.839-5.973 0-10.836-4.859-10.836-11.191"/></clipPath><clipPath id="aW" clipPathUnits="userSpaceOnUse"><path d="m260.117 785.609 22.832-20.757L262.18 742l-22.832 20.758Z"/></clipPath><clipPath id="aY" clipPathUnits="userSpaceOnUse"><path d="M335.309 633.355c0-5.976 4.851-10.839 10.836-10.839 5.972 0 10.832 4.863 10.832 10.839v.364c0 5.965-4.86 10.828-10.832 10.828-5.985 0-10.836-4.863-10.836-11.192"/></clipPath><clipPath id="ba" clipPathUnits="userSpaceOnUse"><path d="M335.309 633.355c0-5.976 4.851-10.839 10.836-10.839 5.972 0 10.832 4.863 10.832 10.839v.364c0 5.965-4.86 10.828-10.832 10.828-5.985 0-10.836-4.863-10.836-11.192"/></clipPath><clipPath id="bb" clipPathUnits="userSpaceOnUse"><path d="m325.137 637.77 25.172 16.777 16.836-25.254-25.172-16.777z"/></clipPath><clipPath id="bd" clipPathUnits="userSpaceOnUse"><path d="M314.055 611.637c0-5.973 4.859-10.828 10.832-10.828 5.98 0 10.847 4.855 10.847 10.828V612c0 5.977-4.867 10.84-10.847 10.84-5.973 0-10.832-4.863-10.832-11.203"/></clipPath><clipPath id="bf" clipPathUnits="userSpaceOnUse"><path d="M314.055 611.637c0-5.973 4.859-10.828 10.832-10.828 5.98 0 10.847 4.855 10.847 10.828V612c0 5.977-4.867 10.84-10.847 10.84-5.973 0-10.832-4.863-10.832-11.203"/></clipPath><clipPath id="bg" clipPathUnits="userSpaceOnUse"><path d="m315.801 628.738 25.933-7.675-7.754-26.165-25.929 7.688z"/></clipPath><clipPath id="bi" clipPathUnits="userSpaceOnUse"><path d="M331.957 698.43c0-7.813 6.359-14.176 14.188-14.176 7.816 0 14.175 6.363 14.175 14.176v.472c0 7.813-6.359 14.18-14.175 14.18-7.829 0-14.188-6.367-14.188-14.652"/></clipPath><clipPath id="bk" clipPathUnits="userSpaceOnUse"><path d="M331.957 698.43c0-7.813 6.359-14.176 14.188-14.176 7.816 0 14.175 6.363 14.175 14.176v.472c0 7.813-6.359 14.18-14.175 14.18-7.829 0-14.188-6.367-14.188-14.652"/></clipPath><clipPath id="bl" clipPathUnits="userSpaceOnUse"><path d="m334.566 721.281 34.086-10.847-10.937-34.375-34.086 10.847z"/></clipPath><clipPath id="bn" clipPathUnits="userSpaceOnUse"><path d="M262.867 724.227c0-9.543 7.758-17.297 17.289-17.297 9.535 0 17.293 7.754 17.293 17.297v.57c0 9.535-7.758 17.289-17.293 17.289-9.531 0-17.289-7.754-17.289-17.859"/></clipPath><clipPath id="bp" clipPathUnits="userSpaceOnUse"><path d="M262.867 724.227c0-9.543 7.758-17.297 17.289-17.297 9.535 0 17.293 7.754 17.293 17.297v.57c0 9.535-7.758 17.289-17.293 17.289-9.531 0-17.289-7.754-17.289-17.859"/></clipPath><clipPath id="bq" clipPathUnits="userSpaceOnUse"><path d="m276.363 758.957 38.239-30.586-30.649-38.305-38.234 30.586z"/></clipPath><clipPath id="bs" clipPathUnits="userSpaceOnUse"><path d="M85.644 1060.02c0-5.98 4.864-10.84 10.836-10.84 5.977 0 10.84 4.86 10.84 10.84v.36c0 5.97-4.863 10.83-10.84 10.83-5.972 0-10.836-4.86-10.836-11.19"/></clipPath><clipPath id="bu" clipPathUnits="userSpaceOnUse"><path d="M85.644 1060.02c0-5.98 4.864-10.84 10.836-10.84 5.977 0 10.84 4.86 10.84 10.84v.36c0 5.97-4.863 10.83-10.84 10.83-5.972 0-10.836-4.86-10.836-11.19"/></clipPath><clipPath id="bv" clipPathUnits="userSpaceOnUse"><path d="m100.824 1081.14 16.586-25.37-25.277-16.52-16.586 25.36z"/></clipPath><clipPath id="bx" clipPathUnits="userSpaceOnUse"><path d="M239.184 905.09c-5.579 0-10.125-4.539-10.125-10.121v-1.789c0-5.586 4.546-10.125 10.125-10.125h1.429c5.582 0 10.125 4.539 10.125 10.125v1.789c0 5.582-4.543 10.121-10.125 10.121z"/></clipPath><clipPath id="bz" clipPathUnits="userSpaceOnUse"><path d="M239.184 905.09c-5.579 0-10.125-4.539-10.125-10.121v-1.789c0-5.586 4.546-10.125 10.125-10.125h1.429c5.582 0 10.125 4.539 10.125 10.125v1.789c0 5.582-4.543 10.121-10.125 10.121z"/></clipPath><clipPath id="bA" clipPathUnits="userSpaceOnUse"><path d="m220.109 900.5 26.114 13.395 13.461-26.25-26.114-13.391z"/></clipPath><clipPath id="bC" clipPathUnits="userSpaceOnUse"><path d="M271.559 785.332c0-5.973 4.855-10.836 10.836-10.836 5.972 0 10.839 4.863 10.839 10.836v.363c0 5.973-4.867 10.832-10.839 10.832-5.981 0-10.836-4.859-10.836-11.195"/></clipPath><clipPath id="bE" clipPathUnits="userSpaceOnUse"><path d="M271.559 785.332c0-5.973 4.855-10.836 10.836-10.836 5.972 0 10.839 4.863 10.839 10.836v.363c0 5.973-4.867 10.832-10.839 10.832-5.981 0-10.836-4.859-10.836-11.195"/></clipPath><clipPath id="bF" clipPathUnits="userSpaceOnUse"><path d="m278.082 806.469 25.254-16.574-16.625-25.34-25.262 16.574z"/></clipPath><clipPath id="bH" clipPathUnits="userSpaceOnUse"><path d="M0 873.113c0-5.976 4.863-10.836 10.84-10.836 5.973 0 10.836 4.86 10.836 10.836v.356c0 5.976-4.863 10.836-10.836 10.836-5.977 0-10.84-4.86-10.84-11.192"/></clipPath><clipPath id="bJ" clipPathUnits="userSpaceOnUse"><path d="M0 873.113c0-5.976 4.863-10.836 10.84-10.836 5.973 0 10.836 4.86 10.836 10.836v.356c0 5.976-4.863 10.836-10.836 10.836-5.977 0-10.84-4.86-10.84-11.192"/></clipPath><clipPath id="bK" clipPathUnits="userSpaceOnUse"><path d="m8.168 894.813 24.18-18.809-18.84-24.234-24.188 18.808Z"/></clipPath><clipPath id="bM" clipPathUnits="userSpaceOnUse"><path d="M335.309 768.637c0-5.977 4.851-10.84 10.836-10.84 5.972 0 10.832 4.863 10.832 10.84v.355c0 5.977-4.86 10.84-10.832 10.84-5.985 0-10.836-4.863-10.836-11.195"/></clipPath><clipPath id="bO" clipPathUnits="userSpaceOnUse"><path d="M335.309 768.637c0-5.977 4.851-10.84 10.836-10.84 5.972 0 10.832 4.863 10.832 10.84v.355c0 5.977-4.86 10.84-10.832 10.84-5.985 0-10.836-4.863-10.836-11.195"/></clipPath><clipPath id="bP" clipPathUnits="userSpaceOnUse"><path d="m343.105 790.23 24.45-18.328-18.379-24.507-24.446 18.335z"/></clipPath><clipPath id="bR" clipPathUnits="userSpaceOnUse"><path d="M314.055 741.914c0-5.98 4.859-10.848 10.832-10.848 5.98 0 10.847 4.868 10.847 10.848v.356c0 5.98-4.867 10.843-10.847 10.843-5.973 0-10.832-4.863-10.832-11.199"/></clipPath><clipPath id="bT" clipPathUnits="userSpaceOnUse"><path d="M314.055 741.914c0-5.98 4.859-10.848 10.832-10.848 5.98 0 10.847 4.868 10.847 10.848v.356c0 5.98-4.867 10.843-10.847 10.843-5.973 0-10.832-4.863-10.832-11.199"/></clipPath><clipPath id="bU" clipPathUnits="userSpaceOnUse"><path d="m303.953 746.512 25.285 16.527 16.59-25.371-25.285-16.527z"/></clipPath><clipPath id="bW" clipPathUnits="userSpaceOnUse"><path d="M324.176 861.664c-5.582 0-10.121-4.539-10.121-10.117v-1.07c0-5.977 4.859-10.844 10.832-10.844 5.98 0 10.847 4.867 10.847 10.844v1.07c0 5.578-4.543 10.117-10.125 10.117z"/></clipPath><clipPath id="bY" clipPathUnits="userSpaceOnUse"><path d="M324.176 861.664c-5.582 0-10.121-4.539-10.121-10.117v-1.07c0-5.977 4.859-10.844 10.832-10.844 5.98 0 10.847 4.867 10.847 10.844v1.07c0 5.578-4.543 10.117-10.125 10.117z"/></clipPath><clipPath id="bZ" clipPathUnits="userSpaceOnUse"><path d="m303.699 854.418 24.906 17.43 17.473-24.969-24.894-17.434z"/></clipPath><clipPath id="cb" clipPathUnits="userSpaceOnUse"><path d="M613.121 1285.71c-3.359-.33-7.414-.71-12.922-1.17-4.402-.36-7.844-4.04-7.844-8.46v-15.46c0-1.74-1.417-3.15-3.152-3.15h-11.629a3.15 3.15 0 0 0-3.148 3.15v9.45c0 2.66-1.211 5.11-3.317 6.74a8.316 8.316 0 0 1-7.23 1.51 289.53 289.53 0 0 1-24.094-7.39c-3.363-1.2-5.582-4.44-5.582-8.01V1249c0-4.64 3.727-8.42 8.348-8.48 1.797-.04 3.277-1.36 3.277-3.15v-51.21c0-5.58-4.515-10.09-10.086-10.09h-21.094c-5.527 0-10 4.47-10 10v16.41a3.15 3.15 0 0 0 3.145 3.15h11.223a8.89 8.89 0 0 1 8.89 8.89v11.21c0 4.69-3.801 8.48-8.48 8.48h-11.633a8.473 8.473 0 0 1-8.477-8.48v-.95c0-6.09-2.906-11.86-7.925-15.3a8.466 8.466 0 0 1-3.7-7v-14.46c0-6.6-5.355-11.95-11.957-11.95h-14.457c-4.679 0-8.48-3.8-8.48-8.48v-34.89c0-4.68 3.801-8.49 8.48-8.49h11.629c4.688 0 8.481 3.81 8.481 8.49v23.26a3.16 3.16 0 0 0 3.148 3.15 3.162 3.162 0 0 0 3.156-3.15c0-4.68 3.797-8.48 8.477-8.48h11.625c4.633 0 8.406 3.73 8.484 8.34.028 1.8 1.356 3.29 3.149 3.29h23.262c1.738 0 3.14-1.41 3.14-3.15v-10.31a8.55 8.55 0 0 1 3.574-6.93c2.254-1.6 5.016-2.01 7.606-1.11 4.805 1.65 5.785 3.73 5.785 6.35v23.63c0 1.74 1.406 3.14 3.148 3.14h23.262a3.152 3.152 0 0 0 3.152-3.14v-8.91c0-2.52 1.09-4.88 3.012-6.51a8.306 8.306 0 0 1 6.785-1.87c9.2 1.54 26.184 2.34 38.215 2.34 36.66 0 68.992-6.98 101.766-21.98 32.773-15 54.414-30.32 79.914-56.55 8.016-7.73 23.984-20.12 43.933-20.12 13.02 0 27.735 5.28 43.047 20.58l11.543 11.64c21.504 21.65 21.778 56.92.43 78.8l-2.09-1.67 1.906 1.86-.011.01c-40.742 41.63-78.711 69.04-123.106 88.86-32.078 14.32-58.094 24.83-100.996 29.65-2.898.33-5.769-.6-7.937-2.52a10.142 10.142 0 0 1-3.379-7.54v-1.4c0-1.74-1.407-3.15-3.145-3.15H658.98a3.156 3.156 0 0 0-3.156 3.15v2.59c0 6.28-4.871 11.47-11.14 11.78-2.715.14-5.801.23-9.485.23-10.078 0-14.344-.4-22.078-1.15m-13.019-46.97v7.29c0 1.74 1.406 3.15 3.144 3.15h7.285a3.156 3.156 0 0 0 3.157-3.15v-7.29c0-1.73-1.418-3.14-3.157-3.14h-7.285a3.144 3.144 0 0 0-3.144 3.14m102.226-13.22v9.51c0 3.6 2.93 6.52 6.524 6.52h8.906c3.605 0 6.535-2.92 6.535-6.52v-9.51c0-3.6-2.93-6.53-6.535-6.53h-8.906c-3.594 0-6.524 2.93-6.524 6.53m-51.707-16.51v6.01c0 1.74 1.414 3.15 3.152 3.15h5.637a3.147 3.147 0 0 0 3.145-3.15v-6.01c0-1.74-1.407-3.15-3.145-3.15h-5.637a3.153 3.153 0 0 0-3.152 3.15m-88.195-16.93v11.63c0 1.73 1.418 3.14 3.148 3.14h11.629a3.148 3.148 0 0 0 3.149-3.14v-11.63a3.15 3.15 0 0 0-3.149-3.15h-11.629a3.154 3.154 0 0 0-3.148 3.15m56.875-15.17v5.07c0 1.74 1.406 3.15 3.144 3.15h4.727a3.15 3.15 0 0 0 3.144-3.15v-5.07c0-1.73-1.414-3.15-3.144-3.15h-4.727a3.152 3.152 0 0 0-3.144 3.15"/></clipPath><clipPath id="cd" clipPathUnits="userSpaceOnUse"><path d="M613.121 1285.71c-3.359-.33-7.414-.71-12.922-1.17-4.402-.36-7.844-4.04-7.844-8.46v-15.46c0-1.74-1.417-3.15-3.152-3.15h-11.629a3.15 3.15 0 0 0-3.148 3.15v9.45c0 2.66-1.211 5.11-3.317 6.74a8.316 8.316 0 0 1-7.23 1.51 289.53 289.53 0 0 1-24.094-7.39c-3.363-1.2-5.582-4.44-5.582-8.01V1249c0-4.64 3.727-8.42 8.348-8.48 1.797-.04 3.277-1.36 3.277-3.15v-51.21c0-5.58-4.515-10.09-10.086-10.09h-21.094c-5.527 0-10 4.47-10 10v16.41a3.15 3.15 0 0 0 3.145 3.15h11.223a8.89 8.89 0 0 1 8.89 8.89v11.21c0 4.69-3.801 8.48-8.48 8.48h-11.633a8.473 8.473 0 0 1-8.477-8.48v-.95c0-6.09-2.906-11.86-7.925-15.3a8.466 8.466 0 0 1-3.7-7v-14.46c0-6.6-5.355-11.95-11.957-11.95h-14.457c-4.679 0-8.48-3.8-8.48-8.48v-34.89c0-4.68 3.801-8.49 8.48-8.49h11.629c4.688 0 8.481 3.81 8.481 8.49v23.26a3.16 3.16 0 0 0 3.148 3.15 3.162 3.162 0 0 0 3.156-3.15c0-4.68 3.797-8.48 8.477-8.48h11.625c4.633 0 8.406 3.73 8.484 8.34.028 1.8 1.356 3.29 3.149 3.29h23.262c1.738 0 3.14-1.41 3.14-3.15v-10.31a8.55 8.55 0 0 1 3.574-6.93c2.254-1.6 5.016-2.01 7.606-1.11 4.805 1.65 5.785 3.73 5.785 6.35v23.63c0 1.74 1.406 3.14 3.148 3.14h23.262a3.152 3.152 0 0 0 3.152-3.14v-8.91c0-2.52 1.09-4.88 3.012-6.51a8.306 8.306 0 0 1 6.785-1.87c9.2 1.54 26.184 2.34 38.215 2.34 36.66 0 68.992-6.98 101.766-21.98 32.773-15 54.414-30.32 79.914-56.55 8.016-7.73 23.984-20.12 43.933-20.12 13.02 0 27.735 5.28 43.047 20.58l11.543 11.64c21.504 21.65 21.778 56.92.43 78.8l-2.09-1.67 1.906 1.86-.011.01c-40.742 41.63-78.711 69.04-123.106 88.86-32.078 14.32-58.094 24.83-100.996 29.65-2.898.33-5.769-.6-7.937-2.52a10.142 10.142 0 0 1-3.379-7.54v-1.4c0-1.74-1.407-3.15-3.145-3.15H658.98a3.156 3.156 0 0 0-3.156 3.15v2.59c0 6.28-4.871 11.47-11.14 11.78-2.715.14-5.801.23-9.485.23-10.078 0-14.344-.4-22.078-1.15m-13.019-46.97v7.29c0 1.74 1.406 3.15 3.144 3.15h7.285a3.156 3.156 0 0 0 3.157-3.15v-7.29c0-1.73-1.418-3.14-3.157-3.14h-7.285a3.144 3.144 0 0 0-3.144 3.14m102.226-13.22v9.51c0 3.6 2.93 6.52 6.524 6.52h8.906c3.605 0 6.535-2.92 6.535-6.52v-9.51c0-3.6-2.93-6.53-6.535-6.53h-8.906c-3.594 0-6.524 2.93-6.524 6.53m-51.707-16.51v6.01c0 1.74 1.414 3.15 3.152 3.15h5.637a3.147 3.147 0 0 0 3.145-3.15v-6.01c0-1.74-1.407-3.15-3.145-3.15h-5.637a3.153 3.153 0 0 0-3.152 3.15m-88.195-16.93v11.63c0 1.73 1.418 3.14 3.148 3.14h11.629a3.148 3.148 0 0 0 3.149-3.14v-11.63a3.15 3.15 0 0 0-3.149-3.15h-11.629a3.154 3.154 0 0 0-3.148 3.15m56.875-15.17v5.07c0 1.74 1.406 3.15 3.144 3.15h4.727a3.15 3.15 0 0 0 3.144-3.15v-5.07c0-1.73-1.414-3.15-3.144-3.15h-4.727a3.152 3.152 0 0 0-3.144 3.15"/></clipPath><clipPath id="ce" clipPathUnits="userSpaceOnUse"><path d="M452.797 1286.86h489.551v-232.87H452.797Z"/></clipPath><clipPath id="cg" clipPathUnits="userSpaceOnUse"><path d="M431.305 1100.95c-4.606 0-8.34-3.74-8.34-8.34 0-4.63 3.734-8.36 8.34-8.36H434a8.347 8.347 0 0 1 8.348 8.36c0 4.6-3.739 8.34-8.348 8.34z"/></clipPath><clipPath id="ci" clipPathUnits="userSpaceOnUse"><path d="M431.305 1100.95c-4.606 0-8.34-3.74-8.34-8.34 0-4.63 3.734-8.36 8.34-8.36H434a8.347 8.347 0 0 1 8.348 8.36c0 4.6-3.739 8.34-8.348 8.34z"/></clipPath><clipPath id="cj" clipPathUnits="userSpaceOnUse"><path d="m433.207 1110.63 17.481-18.51-18.586-17.55-17.477 18.51z"/></clipPath><clipPath id="cl" clipPathUnits="userSpaceOnUse"><path d="M333.961 1178.78a8.352 8.352 0 0 1-8.352-8.35v-.01c0-4.61 3.739-8.35 8.352-8.35h2.684a8.348 8.348 0 0 1 8.351 8.35v.01c0 4.61-3.734 8.35-8.351 8.35z"/></clipPath><clipPath id="cn" clipPathUnits="userSpaceOnUse"><path d="M333.961 1178.78a8.352 8.352 0 0 1-8.352-8.35v-.01c0-4.61 3.739-8.35 8.352-8.35h2.684a8.348 8.348 0 0 1 8.351 8.35v.01c0 4.61-3.734 8.35-8.351 8.35z"/></clipPath><clipPath id="co" clipPathUnits="userSpaceOnUse"><path d="m335.855 1188.45 17.481-18.5-18.59-17.55-17.476 18.51z"/></clipPath><clipPath id="cq" clipPathUnits="userSpaceOnUse"><path d="M364.059 1160.46a8.35 8.35 0 1 1 0-16.7h2.683a8.35 8.35 0 0 1 8.352 8.35 8.35 8.35 0 0 1-8.352 8.35z"/></clipPath><clipPath id="cs" clipPathUnits="userSpaceOnUse"><path d="M364.059 1160.46a8.35 8.35 0 1 1 0-16.7h2.683a8.35 8.35 0 0 1 8.352 8.35 8.35 8.35 0 0 1-8.352 8.35z"/></clipPath><clipPath id="ct" clipPathUnits="userSpaceOnUse"><path d="m362.41 1169.68 20.625-15-14.652-20.14-20.625 15z"/></clipPath><clipPath id="cv" clipPathUnits="userSpaceOnUse"><path d="M379.117 1205.16a8.345 8.345 0 0 1-8.351-8.35c0-4.61 3.738-8.34 8.351-8.34h2.692c4.609 0 8.347 3.73 8.347 8.34 0 4.62-3.738 8.35-8.347 8.35z"/></clipPath><clipPath id="cx" clipPathUnits="userSpaceOnUse"><path d="M379.117 1205.16a8.345 8.345 0 0 1-8.351-8.35c0-4.61 3.738-8.34 8.351-8.34h2.692c4.609 0 8.347 3.73 8.347 8.34 0 4.62-3.738 8.35-8.347 8.35z"/></clipPath><clipPath id="cy" clipPathUnits="userSpaceOnUse"><path d="m377.477 1214.38 20.621-14.99-14.653-20.14-20.617 14.99z"/></clipPath><clipPath id="cA" clipPathUnits="userSpaceOnUse"><path d="M140.977 940.844c-5.582 0-10.125-4.543-10.125-10.125v-15.828c0-5.582 4.543-10.121 10.125-10.121h1.429c5.582 0 10.129 4.539 10.129 10.121l-.008 15.828c0 5.582-4.543 10.125-10.125 10.125z"/></clipPath><clipPath id="cC" clipPathUnits="userSpaceOnUse"><path d="M140.977 940.844c-5.582 0-10.125-4.543-10.125-10.125v-15.828c0-5.582 4.543-10.121 10.125-10.121h1.429c5.582 0 10.129 4.539 10.129 10.121l-.008 15.828c0 5.582-4.543 10.125-10.125 10.125z"/></clipPath><clipPath id="cD" clipPathUnits="userSpaceOnUse"><path d="m141.859 951.684 28.707-29.161-29.046-28.593-28.707 29.16Z"/></clipPath><clipPath id="cF" clipPathUnits="userSpaceOnUse"><path d="M199.926 986.25c-5.578 0-10.125-4.547-10.125-10.129v-1.426c0-5.582 4.547-10.121 10.125-10.121h15.832c5.586 0 10.125 4.539 10.125 10.121v1.434c0 5.578-4.539 10.125-10.125 10.125z"/></clipPath><clipPath id="cH" clipPathUnits="userSpaceOnUse"><path d="M199.926 986.25c-5.578 0-10.125-4.547-10.125-10.129v-1.426c0-5.582 4.547-10.121 10.125-10.121h15.832c5.586 0 10.125 4.539 10.125 10.121v1.434c0 5.578-4.539 10.125-10.125 10.125z"/></clipPath><clipPath id="cI" clipPathUnits="userSpaceOnUse"><path d="m178.961 975.582 29.164 28.708 28.598-29.048-29.164-28.711z"/></clipPath><linearGradient id="b" x1="0" x2="1" y1="0" y2="0" gradientTransform="matrix(330.038 0 0 -330.038 559.234 677.91)" gradientUnits="userSpaceOnUse" spreadMethod="pad"><stop offset="0" style="stop-opacity:1;stop-color:#7e228a"/><stop offset="1" style="stop-opacity:1;stop-color:#561f63"/></linearGradient><linearGradient id="d" x1="0" x2="1" y1="0" y2="0" gradientTransform="matrix(330.038 0 0 -330.038 559.234 701.659)" gradientUnits="userSpaceOnUse" spreadMethod="pad"><stop offset="0" style="stop-opacity:1;stop-color:#7e228a"/><stop offset="1" style="stop-opacity:1;stop-color:#561f63"/></linearGradient><linearGradient id="g" x1="0" x2="1" y1="0" y2="0" gradientTransform="matrix(330.038 0 0 -330.038 559.234 701.659)" gradientUnits="userSpaceOnUse" spreadMethod="pad"><stop offset="0" style="stop-opacity:1;stop-color:#7e228a"/><stop offset="1" style="stop-opacity:1;stop-color:#561f63"/></linearGradient><linearGradient id="i" x1="0" x2="1" y1="0" y2="0" gradientTransform="matrix(330.038 0 0 -330.038 559.234 676.957)" gradientUnits="userSpaceOnUse" spreadMethod="pad"><stop offset="0" style="stop-opacity:1;stop-color:#7e228a"/><stop offset="1" style="stop-opacity:1;stop-color:#561f63"/></linearGradient><linearGradient id="l" x1="0" x2="1" y1="0" y2="0" gradientTransform="matrix(330.038 0 0 -330.038 559.234 676.957)" gradientUnits="userSpaceOnUse" spreadMethod="pad"><stop offset="0" style="stop-opacity:1;stop-color:#7e228a"/><stop offset="1" style="stop-opacity:1;stop-color:#561f63"/></linearGradient><linearGradient id="n" x1="0" x2="1" y1="0" y2="0" gradientTransform="matrix(330.038 0 0 -330.038 559.234 1070.89)" gradientUnits="userSpaceOnUse" spreadMethod="pad"><stop offset="0" style="stop-opacity:1;stop-color:#7e228a"/><stop offset="1" style="stop-opacity:1;stop-color:#561f63"/></linearGradient><linearGradient id="q" x1="0" x2="1" y1="0" y2="0" gradientTransform="matrix(330.038 0 0 -330.038 559.234 1070.89)" gradientUnits="userSpaceOnUse" spreadMethod="pad"><stop offset="0" style="stop-opacity:1;stop-color:#7e228a"/><stop offset="1" style="stop-opacity:1;stop-color:#561f63"/></linearGradient><linearGradient id="s" x1="0" x2="1" y1="0" y2="0" gradientTransform="matrix(330.038 0 0 -330.038 559.234 836.409)" gradientUnits="userSpaceOnUse" spreadMethod="pad"><stop offset="0" style="stop-opacity:1;stop-color:#7e228a"/><stop offset="1" style="stop-opacity:1;stop-color:#561f63"/></linearGradient><linearGradient id="v" x1="0" x2="1" y1="0" y2="0" gradientTransform="matrix(330.038 0 0 -330.038 559.234 836.409)" gradientUnits="userSpaceOnUse" spreadMethod="pad"><stop offset="0" style="stop-opacity:1;stop-color:#7e228a"/><stop offset="1" style="stop-opacity:1;stop-color:#561f63"/></linearGradient><linearGradient id="x" x1="0" x2="1" y1="0" y2="0" gradientTransform="matrix(330.038 0 0 -330.038 559.234 1221.41)" gradientUnits="userSpaceOnUse" spreadMethod="pad"><stop offset="0" style="stop-opacity:1;stop-color:#7e228a"/><stop offset="1" style="stop-opacity:1;stop-color:#561f63"/></linearGradient><linearGradient id="A" x1="0" x2="1" y1="0" y2="0" gradientTransform="matrix(330.038 0 0 -330.038 559.234 1221.41)" gradientUnits="userSpaceOnUse" spreadMethod="pad"><stop offset="0" style="stop-opacity:1;stop-color:#7e228a"/><stop offset="1" style="stop-opacity:1;stop-color:#561f63"/></linearGradient><linearGradient id="C" x1="0" x2="1" y1="0" y2="0" gradientTransform="matrix(330.038 0 0 -330.038 559.234 1092.6)" gradientUnits="userSpaceOnUse" spreadMethod="pad"><stop offset="0" style="stop-opacity:1;stop-color:#7e228a"/><stop offset="1" style="stop-opacity:1;stop-color:#561f63"/></linearGradient><linearGradient id="F" x1="0" x2="1" y1="0" y2="0" gradientTransform="matrix(330.038 0 0 -330.038 559.234 1092.6)" gradientUnits="userSpaceOnUse" spreadMethod="pad"><stop offset="0" style="stop-opacity:1;stop-color:#7e228a"/><stop offset="1" style="stop-opacity:1;stop-color:#561f63"/></linearGradient><linearGradient id="H" x1="0" x2="1" y1="0" y2="0" gradientTransform="matrix(330.038 0 0 -330.038 559.234 1049.18)" gradientUnits="userSpaceOnUse" spreadMethod="pad"><stop offset="0" style="stop-opacity:1;stop-color:#7e228a"/><stop offset="1" style="stop-opacity:1;stop-color:#561f63"/></linearGradient><linearGradient id="K" x1="0" x2="1" y1="0" y2="0" gradientTransform="matrix(330.038 0 0 -330.038 559.234 1049.18)" gradientUnits="userSpaceOnUse" spreadMethod="pad"><stop offset="0" style="stop-opacity:1;stop-color:#7e228a"/><stop offset="1" style="stop-opacity:1;stop-color:#561f63"/></linearGradient><linearGradient id="M" x1="0" x2="1" y1="0" y2="0" gradientTransform="matrix(330.038 0 0 -330.038 559.234 1021.76)" gradientUnits="userSpaceOnUse" spreadMethod="pad"><stop offset="0" style="stop-opacity:1;stop-color:#7e228a"/><stop offset="1" style="stop-opacity:1;stop-color:#561f63"/></linearGradient><linearGradient id="P" x1="0" x2="1" y1="0" y2="0" gradientTransform="matrix(330.038 0 0 -330.038 559.234 1021.76)" gradientUnits="userSpaceOnUse" spreadMethod="pad"><stop offset="0" style="stop-opacity:1;stop-color:#7e228a"/><stop offset="1" style="stop-opacity:1;stop-color:#561f63"/></linearGradient><linearGradient id="R" x1="0" x2="1" y1="0" y2="0" gradientTransform="matrix(330.038 0 0 -330.038 559.234 1114.31)" gradientUnits="userSpaceOnUse" spreadMethod="pad"><stop offset="0" style="stop-opacity:1;stop-color:#7e228a"/><stop offset="1" style="stop-opacity:1;stop-color:#561f63"/></linearGradient><linearGradient id="U" x1="0" x2="1" y1="0" y2="0" gradientTransform="matrix(330.038 0 0 -330.038 559.234 1114.31)" gradientUnits="userSpaceOnUse" spreadMethod="pad"><stop offset="0" style="stop-opacity:1;stop-color:#7e228a"/><stop offset="1" style="stop-opacity:1;stop-color:#561f63"/></linearGradient><linearGradient id="W" x1="0" x2="1" y1="0" y2="0" gradientTransform="matrix(330.038 0 0 -330.038 559.234 922.805)" gradientUnits="userSpaceOnUse" spreadMethod="pad"><stop offset="0" style="stop-opacity:1;stop-color:#7e228a"/><stop offset="1" style="stop-opacity:1;stop-color:#561f63"/></linearGradient><linearGradient id="Z" x1="0" x2="1" y1="0" y2="0" gradientTransform="matrix(330.038 0 0 -330.038 559.234 922.805)" gradientUnits="userSpaceOnUse" spreadMethod="pad"><stop offset="0" style="stop-opacity:1;stop-color:#7e228a"/><stop offset="1" style="stop-opacity:1;stop-color:#561f63"/></linearGradient><linearGradient id="ab" x1="0" x2="1" y1="0" y2="0" gradientTransform="matrix(330.038 0 0 -330.038 559.234 1170.43)" gradientUnits="userSpaceOnUse" spreadMethod="pad"><stop offset="0" style="stop-opacity:1;stop-color:#7e228a"/><stop offset="1" style="stop-opacity:1;stop-color:#561f63"/></linearGradient><linearGradient id="ae" x1="0" x2="1" y1="0" y2="0" gradientTransform="matrix(330.038 0 0 -330.038 559.234 1170.43)" gradientUnits="userSpaceOnUse" spreadMethod="pad"><stop offset="0" style="stop-opacity:1;stop-color:#7e228a"/><stop offset="1" style="stop-opacity:1;stop-color:#561f63"/></linearGradient><linearGradient id="ag" x1="0" x2="1" y1="0" y2="0" gradientTransform="matrix(330.038 0 0 -330.038 559.234 1107.29)" gradientUnits="userSpaceOnUse" spreadMethod="pad"><stop offset="0" style="stop-opacity:1;stop-color:#7e228a"/><stop offset="1" style="stop-opacity:1;stop-color:#561f63"/></linearGradient><linearGradient id="aj" x1="0" x2="1" y1="0" y2="0" gradientTransform="matrix(330.038 0 0 -330.038 559.234 1107.29)" gradientUnits="userSpaceOnUse" spreadMethod="pad"><stop offset="0" style="stop-opacity:1;stop-color:#7e228a"/><stop offset="1" style="stop-opacity:1;stop-color:#561f63"/></linearGradient><linearGradient id="al" x1="0" x2="1" y1="0" y2="0" gradientTransform="matrix(330.038 0 0 -330.038 559.234 1005.76)" gradientUnits="userSpaceOnUse" spreadMethod="pad"><stop offset="0" style="stop-opacity:1;stop-color:#7e228a"/><stop offset="1" style="stop-opacity:1;stop-color:#561f63"/></linearGradient><linearGradient id="ao" x1="0" x2="1" y1="0" y2="0" gradientTransform="matrix(330.038 0 0 -330.038 559.234 1005.76)" gradientUnits="userSpaceOnUse" spreadMethod="pad"><stop offset="0" style="stop-opacity:1;stop-color:#7e228a"/><stop offset="1" style="stop-opacity:1;stop-color:#561f63"/></linearGradient><linearGradient id="aq" x1="0" x2="1" y1="0" y2="0" gradientTransform="matrix(330.038 0 0 -330.038 559.234 975.41)" gradientUnits="userSpaceOnUse" spreadMethod="pad"><stop offset="0" style="stop-opacity:1;stop-color:#7e228a"/><stop offset="1" style="stop-opacity:1;stop-color:#561f63"/></linearGradient><linearGradient id="at" x1="0" x2="1" y1="0" y2="0" gradientTransform="matrix(330.038 0 0 -330.038 559.234 975.41)" gradientUnits="userSpaceOnUse" spreadMethod="pad"><stop offset="0" style="stop-opacity:1;stop-color:#7e228a"/><stop offset="1" style="stop-opacity:1;stop-color:#561f63"/></linearGradient><linearGradient id="av" x1="0" x2="1" y1="0" y2="0" gradientTransform="matrix(330.038 0 0 -330.038 559.234 1081.59)" gradientUnits="userSpaceOnUse" spreadMethod="pad"><stop offset="0" style="stop-opacity:1;stop-color:#7e228a"/><stop offset="1" style="stop-opacity:1;stop-color:#561f63"/></linearGradient><linearGradient id="ay" x1="0" x2="1" y1="0" y2="0" gradientTransform="matrix(330.038 0 0 -330.038 559.234 1081.59)" gradientUnits="userSpaceOnUse" spreadMethod="pad"><stop offset="0" style="stop-opacity:1;stop-color:#7e228a"/><stop offset="1" style="stop-opacity:1;stop-color:#561f63"/></linearGradient><linearGradient id="aA" x1="0" x2="1" y1="0" y2="0" gradientTransform="matrix(330.038 0 0 -330.038 559.234 894.074)" gradientUnits="userSpaceOnUse" spreadMethod="pad"><stop offset="0" style="stop-opacity:1;stop-color:#7e228a"/><stop offset="1" style="stop-opacity:1;stop-color:#561f63"/></linearGradient><linearGradient id="aD" x1="0" x2="1" y1="0" y2="0" gradientTransform="matrix(330.038 0 0 -330.038 559.234 894.074)" gradientUnits="userSpaceOnUse" spreadMethod="pad"><stop offset="0" style="stop-opacity:1;stop-color:#7e228a"/><stop offset="1" style="stop-opacity:1;stop-color:#561f63"/></linearGradient><linearGradient id="aF" x1="0" x2="1" y1="0" y2="0" gradientTransform="matrix(330.038 0 0 -330.038 559.234 742.09)" gradientUnits="userSpaceOnUse" spreadMethod="pad"><stop offset="0" style="stop-opacity:1;stop-color:#7e228a"/><stop offset="1" style="stop-opacity:1;stop-color:#561f63"/></linearGradient><linearGradient id="aI" x1="0" x2="1" y1="0" y2="0" gradientTransform="matrix(330.038 0 0 -330.038 559.234 742.09)" gradientUnits="userSpaceOnUse" spreadMethod="pad"><stop offset="0" style="stop-opacity:1;stop-color:#7e228a"/><stop offset="1" style="stop-opacity:1;stop-color:#561f63"/></linearGradient><linearGradient id="aK" x1="0" x2="1" y1="0" y2="0" gradientTransform="matrix(330.038 0 0 -330.038 559.234 825)" gradientUnits="userSpaceOnUse" spreadMethod="pad"><stop offset="0" style="stop-opacity:1;stop-color:#7e228a"/><stop offset="1" style="stop-opacity:1;stop-color:#561f63"/></linearGradient><linearGradient id="aN" x1="0" x2="1" y1="0" y2="0" gradientTransform="matrix(330.038 0 0 -330.038 559.234 825)" gradientUnits="userSpaceOnUse" spreadMethod="pad"><stop offset="0" style="stop-opacity:1;stop-color:#7e228a"/><stop offset="1" style="stop-opacity:1;stop-color:#561f63"/></linearGradient><linearGradient id="aP" x1="0" x2="1" y1="0" y2="0" gradientTransform="matrix(330.038 0 0 -330.038 559.234 655.242)" gradientUnits="userSpaceOnUse" spreadMethod="pad"><stop offset="0" style="stop-opacity:1;stop-color:#7e228a"/><stop offset="1" style="stop-opacity:1;stop-color:#561f63"/></linearGradient><linearGradient id="aS" x1="0" x2="1" y1="0" y2="0" gradientTransform="matrix(330.038 0 0 -330.038 559.234 655.242)" gradientUnits="userSpaceOnUse" spreadMethod="pad"><stop offset="0" style="stop-opacity:1;stop-color:#7e228a"/><stop offset="1" style="stop-opacity:1;stop-color:#561f63"/></linearGradient><linearGradient id="aU" x1="0" x2="1" y1="0" y2="0" gradientTransform="matrix(330.038 0 0 -330.038 559.234 763.804)" gradientUnits="userSpaceOnUse" spreadMethod="pad"><stop offset="0" style="stop-opacity:1;stop-color:#7e228a"/><stop offset="1" style="stop-opacity:1;stop-color:#561f63"/></linearGradient><linearGradient id="aX" x1="0" x2="1" y1="0" y2="0" gradientTransform="matrix(330.038 0 0 -330.038 559.234 763.804)" gradientUnits="userSpaceOnUse" spreadMethod="pad"><stop offset="0" style="stop-opacity:1;stop-color:#7e228a"/><stop offset="1" style="stop-opacity:1;stop-color:#561f63"/></linearGradient><linearGradient id="aZ" x1="0" x2="1" y1="0" y2="0" gradientTransform="matrix(330.038 0 0 -330.038 559.234 633.532)" gradientUnits="userSpaceOnUse" spreadMethod="pad"><stop offset="0" style="stop-opacity:1;stop-color:#7e228a"/><stop offset="1" style="stop-opacity:1;stop-color:#561f63"/></linearGradient><linearGradient id="bc" x1="0" x2="1" y1="0" y2="0" gradientTransform="matrix(330.038 0 0 -330.038 559.234 633.532)" gradientUnits="userSpaceOnUse" spreadMethod="pad"><stop offset="0" style="stop-opacity:1;stop-color:#7e228a"/><stop offset="1" style="stop-opacity:1;stop-color:#561f63"/></linearGradient><linearGradient id="be" x1="0" x2="1" y1="0" y2="0" gradientTransform="matrix(330.038 0 0 -330.038 559.234 611.822)" gradientUnits="userSpaceOnUse" spreadMethod="pad"><stop offset="0" style="stop-opacity:1;stop-color:#7e228a"/><stop offset="1" style="stop-opacity:1;stop-color:#561f63"/></linearGradient><linearGradient id="bh" x1="0" x2="1" y1="0" y2="0" gradientTransform="matrix(330.038 0 0 -330.038 559.234 611.822)" gradientUnits="userSpaceOnUse" spreadMethod="pad"><stop offset="0" style="stop-opacity:1;stop-color:#7e228a"/><stop offset="1" style="stop-opacity:1;stop-color:#561f63"/></linearGradient><linearGradient id="bj" x1="0" x2="1" y1="0" y2="0" gradientTransform="matrix(330.038 0 0 -330.038 559.234 698.669)" gradientUnits="userSpaceOnUse" spreadMethod="pad"><stop offset="0" style="stop-opacity:1;stop-color:#7e228a"/><stop offset="1" style="stop-opacity:1;stop-color:#561f63"/></linearGradient><linearGradient id="bm" x1="0" x2="1" y1="0" y2="0" gradientTransform="matrix(330.038 0 0 -330.038 559.234 698.669)" gradientUnits="userSpaceOnUse" spreadMethod="pad"><stop offset="0" style="stop-opacity:1;stop-color:#7e228a"/><stop offset="1" style="stop-opacity:1;stop-color:#561f63"/></linearGradient><linearGradient id="bo" x1="0" x2="1" y1="0" y2="0" gradientTransform="matrix(330.038 0 0 -330.038 559.234 724.511)" gradientUnits="userSpaceOnUse" spreadMethod="pad"><stop offset="0" style="stop-opacity:1;stop-color:#7e228a"/><stop offset="1" style="stop-opacity:1;stop-color:#561f63"/></linearGradient><linearGradient id="br" x1="0" x2="1" y1="0" y2="0" gradientTransform="matrix(330.038 0 0 -330.038 559.234 724.511)" gradientUnits="userSpaceOnUse" spreadMethod="pad"><stop offset="0" style="stop-opacity:1;stop-color:#7e228a"/><stop offset="1" style="stop-opacity:1;stop-color:#561f63"/></linearGradient><linearGradient id="bt" x1="0" x2="1" y1="0" y2="0" gradientTransform="matrix(330.038 0 0 -330.038 559.234 1060.2)" gradientUnits="userSpaceOnUse" spreadMethod="pad"><stop offset="0" style="stop-opacity:1;stop-color:#7e228a"/><stop offset="1" style="stop-opacity:1;stop-color:#561f63"/></linearGradient><linearGradient id="bw" x1="0" x2="1" y1="0" y2="0" gradientTransform="matrix(330.038 0 0 -330.038 559.234 1060.2)" gradientUnits="userSpaceOnUse" spreadMethod="pad"><stop offset="0" style="stop-opacity:1;stop-color:#7e228a"/><stop offset="1" style="stop-opacity:1;stop-color:#561f63"/></linearGradient><linearGradient id="by" x1="0" x2="1" y1="0" y2="0" gradientTransform="matrix(330.038 0 0 -330.038 559.234 894.074)" gradientUnits="userSpaceOnUse" spreadMethod="pad"><stop offset="0" style="stop-opacity:1;stop-color:#7e228a"/><stop offset="1" style="stop-opacity:1;stop-color:#561f63"/></linearGradient><linearGradient id="bB" x1="0" x2="1" y1="0" y2="0" gradientTransform="matrix(330.038 0 0 -330.038 559.234 894.074)" gradientUnits="userSpaceOnUse" spreadMethod="pad"><stop offset="0" style="stop-opacity:1;stop-color:#7e228a"/><stop offset="1" style="stop-opacity:1;stop-color:#561f63"/></linearGradient><linearGradient id="bD" x1="0" x2="1" y1="0" y2="0" gradientTransform="matrix(330.038 0 0 -330.038 559.234 785.512)" gradientUnits="userSpaceOnUse" spreadMethod="pad"><stop offset="0" style="stop-opacity:1;stop-color:#7e228a"/><stop offset="1" style="stop-opacity:1;stop-color:#561f63"/></linearGradient><linearGradient id="bG" x1="0" x2="1" y1="0" y2="0" gradientTransform="matrix(330.038 0 0 -330.038 559.234 785.512)" gradientUnits="userSpaceOnUse" spreadMethod="pad"><stop offset="0" style="stop-opacity:1;stop-color:#7e228a"/><stop offset="1" style="stop-opacity:1;stop-color:#561f63"/></linearGradient><linearGradient id="bI" x1="0" x2="1" y1="0" y2="0" gradientTransform="matrix(330.038 0 0 -330.038 559.234 873.291)" gradientUnits="userSpaceOnUse" spreadMethod="pad"><stop offset="0" style="stop-opacity:1;stop-color:#7e228a"/><stop offset="1" style="stop-opacity:1;stop-color:#561f63"/></linearGradient><linearGradient id="bL" x1="0" x2="1" y1="0" y2="0" gradientTransform="matrix(330.038 0 0 -330.038 559.234 873.291)" gradientUnits="userSpaceOnUse" spreadMethod="pad"><stop offset="0" style="stop-opacity:1;stop-color:#7e228a"/><stop offset="1" style="stop-opacity:1;stop-color:#561f63"/></linearGradient><linearGradient id="bN" x1="0" x2="1" y1="0" y2="0" gradientTransform="matrix(330.038 0 0 -330.038 559.234 768.815)" gradientUnits="userSpaceOnUse" spreadMethod="pad"><stop offset="0" style="stop-opacity:1;stop-color:#7e228a"/><stop offset="1" style="stop-opacity:1;stop-color:#561f63"/></linearGradient><linearGradient id="bQ" x1="0" x2="1" y1="0" y2="0" gradientTransform="matrix(330.038 0 0 -330.038 559.234 768.815)" gradientUnits="userSpaceOnUse" spreadMethod="pad"><stop offset="0" style="stop-opacity:1;stop-color:#7e228a"/><stop offset="1" style="stop-opacity:1;stop-color:#561f63"/></linearGradient><linearGradient id="bS" x1="0" x2="1" y1="0" y2="0" gradientTransform="matrix(330.038 0 0 -330.038 559.234 742.09)" gradientUnits="userSpaceOnUse" spreadMethod="pad"><stop offset="0" style="stop-opacity:1;stop-color:#7e228a"/><stop offset="1" style="stop-opacity:1;stop-color:#561f63"/></linearGradient><linearGradient id="bV" x1="0" x2="1" y1="0" y2="0" gradientTransform="matrix(330.038 0 0 -330.038 559.234 742.09)" gradientUnits="userSpaceOnUse" spreadMethod="pad"><stop offset="0" style="stop-opacity:1;stop-color:#7e228a"/><stop offset="1" style="stop-opacity:1;stop-color:#561f63"/></linearGradient><linearGradient id="bX" x1="0" x2="1" y1="0" y2="0" gradientTransform="matrix(330.038 0 0 -330.038 559.234 850.647)" gradientUnits="userSpaceOnUse" spreadMethod="pad"><stop offset="0" style="stop-opacity:1;stop-color:#7e228a"/><stop offset="1" style="stop-opacity:1;stop-color:#561f63"/></linearGradient><linearGradient id="ca" x1="0" x2="1" y1="0" y2="0" gradientTransform="matrix(330.038 0 0 -330.038 559.234 850.647)" gradientUnits="userSpaceOnUse" spreadMethod="pad"><stop offset="0" style="stop-opacity:1;stop-color:#7e228a"/><stop offset="1" style="stop-opacity:1;stop-color:#561f63"/></linearGradient><linearGradient id="cc" x1="0" x2="1" y1="0" y2="0" gradientTransform="matrix(330.038 0 0 -330.038 559.234 1170.43)" gradientUnits="userSpaceOnUse" spreadMethod="pad"><stop offset="0" style="stop-opacity:1;stop-color:#7e228a"/><stop offset="1" style="stop-opacity:1;stop-color:#561f63"/></linearGradient><linearGradient id="cf" x1="0" x2="1" y1="0" y2="0" gradientTransform="matrix(330.038 0 0 -330.038 559.234 1170.43)" gradientUnits="userSpaceOnUse" spreadMethod="pad"><stop offset="0" style="stop-opacity:1;stop-color:#7e228a"/><stop offset="1" style="stop-opacity:1;stop-color:#561f63"/></linearGradient><linearGradient id="ch" x1="0" x2="1" y1="0" y2="0" gradientTransform="matrix(330.038 0 0 -330.038 559.234 1092.6)" gradientUnits="userSpaceOnUse" spreadMethod="pad"><stop offset="0" style="stop-opacity:1;stop-color:#7e228a"/><stop offset="1" style="stop-opacity:1;stop-color:#561f63"/></linearGradient><linearGradient id="ck" x1="0" x2="1" y1="0" y2="0" gradientTransform="matrix(330.038 0 0 -330.038 559.234 1092.6)" gradientUnits="userSpaceOnUse" spreadMethod="pad"><stop offset="0" style="stop-opacity:1;stop-color:#7e228a"/><stop offset="1" style="stop-opacity:1;stop-color:#561f63"/></linearGradient><linearGradient id="cm" x1="0" x2="1" y1="0" y2="0" gradientTransform="matrix(330.038 0 0 -330.038 559.234 1170.43)" gradientUnits="userSpaceOnUse" spreadMethod="pad"><stop offset="0" style="stop-opacity:1;stop-color:#7e228a"/><stop offset="1" style="stop-opacity:1;stop-color:#561f63"/></linearGradient><linearGradient id="cp" x1="0" x2="1" y1="0" y2="0" gradientTransform="matrix(330.038 0 0 -330.038 559.234 1170.43)" gradientUnits="userSpaceOnUse" spreadMethod="pad"><stop offset="0" style="stop-opacity:1;stop-color:#7e228a"/><stop offset="1" style="stop-opacity:1;stop-color:#561f63"/></linearGradient><linearGradient id="cr" x1="0" x2="1" y1="0" y2="0" gradientTransform="matrix(330.038 0 0 -330.038 559.234 1152.11)" gradientUnits="userSpaceOnUse" spreadMethod="pad"><stop offset="0" style="stop-opacity:1;stop-color:#7e228a"/><stop offset="1" style="stop-opacity:1;stop-color:#561f63"/></linearGradient><linearGradient id="cu" x1="0" x2="1" y1="0" y2="0" gradientTransform="matrix(330.038 0 0 -330.038 559.234 1152.11)" gradientUnits="userSpaceOnUse" spreadMethod="pad"><stop offset="0" style="stop-opacity:1;stop-color:#7e228a"/><stop offset="1" style="stop-opacity:1;stop-color:#561f63"/></linearGradient><linearGradient id="cw" x1="0" x2="1" y1="0" y2="0" gradientTransform="matrix(330.038 0 0 -330.038 559.234 1196.81)" gradientUnits="userSpaceOnUse" spreadMethod="pad"><stop offset="0" style="stop-opacity:1;stop-color:#7e228a"/><stop offset="1" style="stop-opacity:1;stop-color:#561f63"/></linearGradient><linearGradient id="cz" x1="0" x2="1" y1="0" y2="0" gradientTransform="matrix(330.038 0 0 -330.038 559.234 1196.81)" gradientUnits="userSpaceOnUse" spreadMethod="pad"><stop offset="0" style="stop-opacity:1;stop-color:#7e228a"/><stop offset="1" style="stop-opacity:1;stop-color:#561f63"/></linearGradient><linearGradient id="cB" x1="0" x2="1" y1="0" y2="0" gradientTransform="matrix(330.038 0 0 -330.038 559.234 922.805)" gradientUnits="userSpaceOnUse" spreadMethod="pad"><stop offset="0" style="stop-opacity:1;stop-color:#7e228a"/><stop offset="1" style="stop-opacity:1;stop-color:#561f63"/></linearGradient><linearGradient id="cE" x1="0" x2="1" y1="0" y2="0" gradientTransform="matrix(330.038 0 0 -330.038 559.234 922.805)" gradientUnits="userSpaceOnUse" spreadMethod="pad"><stop offset="0" style="stop-opacity:1;stop-color:#7e228a"/><stop offset="1" style="stop-opacity:1;stop-color:#561f63"/></linearGradient><linearGradient id="cG" x1="0" x2="1" y1="0" y2="0" gradientTransform="matrix(330.038 0 0 -330.038 559.234 975.412)" gradientUnits="userSpaceOnUse" spreadMethod="pad"><stop offset="0" style="stop-opacity:1;stop-color:#7e228a"/><stop offset="1" style="stop-opacity:1;stop-color:#561f63"/></linearGradient><linearGradient id="cJ" x1="0" x2="1" y1="0" y2="0" gradientTransform="matrix(330.038 0 0 -330.038 559.234 975.412)" gradientUnits="userSpaceOnUse" spreadMethod="pad"><stop offset="0" style="stop-opacity:1;stop-color:#7e228a"/><stop offset="1" style="stop-opacity:1;stop-color:#561f63"/></linearGradient></defs><g clip-path="url(#a)" transform="matrix(.13333 0 0 -.13333 0 171.587)"><path d="M424.656 560.535v15.399c0 1.652 1.344 3 2.996 3h14.836a3.005 3.005 0 0 0 2.996-3v-15.399a2.996 2.996 0 0 0-2.996-2.996h-14.836a2.994 2.994 0 0 0-2.996 2.996m150.16 2.735v10.261c0 1.653 1.344 3 2.993 3h9.808a3.003 3.003 0 0 0 2.992-3V563.27c0-1.661-1.347-3-2.992-3h-9.808a2.996 2.996 0 0 0-2.993 3m-82.179-10.93v15.41c0 1.652 1.343 3 2.992 3h14.836a2.999 2.999 0 0 0 2.988-3v-15.41a2.99 2.99 0 0 0-2.988-2.988h-14.836a2.993 2.993 0 0 0-2.992 2.988m87.402-48.563a7.202 7.202 0 0 0-7.207 7.207v.313c0 3.973 3.223 7.195 7.207 7.195 3.977 0 7.203-3.222 7.203-7.195v-.313a7.203 7.203 0 0 0-7.203-7.207m-43.637 13.836a7.205 7.205 0 0 0-7.207 7.207v.313c0 3.976 3.227 7.199 7.207 7.199a7.2 7.2 0 0 0 7.203-7.199v-.313a7.2 7.2 0 0 0-7.203-7.207m144.61 378.711c-19.27 0-61.055-14.804-62.727-58.492-1.328-34.762 27.5-63.336 62.285-63.336h140.274c6.164 0 12.297-1.988 16.886-6.113 6.786-6.113 9.571-15.09 7.606-23.731-10.977-48.316-33.711-75.246-33.984-75.562-10.164-12.453-21.231-23.145-32.899-31.797-14.64-10.871-30.215-19.492-46.262-25.645-16.531-6.347-34.101-10.949-52.207-13.683a384.447 384.447 0 0 0-57.05-4.258c-80.235 0-134.075 24.863-134.754 25.176l-2.258.949a10.472 10.472 0 0 0-6.379 9.414c.02 4.578-3.703 8.328-8.289 8.348l-20.512.078h-.043a9.116 9.116 0 0 1-6.461-2.664 9.1 9.1 0 0 1-2.695-6.496v-15.711c0-6.446-5.223-11.68-11.68-11.68h-20.16c-5.648 0-10.23 4.578-10.23 10.234v8.165a2.993 2.993 0 0 0 2.992 2.996h9.937c4.594 0 8.325 3.734 8.325 8.332l-.008 39.484a11.159 11.159 0 0 1-11.125 11.168h-40.246c-5.332 0-10.231-3.586-11.246-8.816-1.368-7.036 4.007-13.215 10.8-13.215l19.961.031c7.782 0 10.184.02 10.184-6.742v-5.215a3 3 0 0 0-2.996-2.996h-9.93a8.31 8.31 0 0 1-8.316-8.32v-32.11a3.003 3.003 0 0 0-3-2.996h-9.934c-4.594 0-8.324-3.723-8.324-8.32V569.5c0-6.66 5.461-12.121 12.125-12.121h1.23c4.594 0 8.325 3.73 8.325 8.332v10.391a2.997 2.997 0 0 0 2.988 2.996h14.836a3.002 3.002 0 0 0 2.996-2.996v-15.403a2.994 2.994 0 0 0-2.996-2.996h-9.93a8.313 8.313 0 0 1-8.316-8.32v-.449c0-2.61 1.183-5.071 3.25-6.653a412.05 412.05 0 0 1 26.672-18.73c2.617-1.699 5.82-1.805 8.566-.301 2.867 1.57 4.426 4.824 4.43 8.094l.004 1.328c0 1.652 1.339 3 2.988 3h14.836a3.002 3.002 0 0 0 2.992-3V509.02c0-3.165 1.742-6.004 4.656-7.489l13.84-6.281a7.967 7.967 0 0 1 7.699.586 7.957 7.957 0 0 1 3.649 6.621c.011 1.719 1.269 3.145 2.992 3.145h14.836a2.99 2.99 0 0 0 2.992-2.989V487.75c0-3.555 2.266-6.777 5.629-7.918 39.93-13.488 82.019-20.344 125.098-20.344 53.234 0 107.296 9.602 160.754 28.535 46.179 17.461 95.605 42.688 144.089 108.547 39.368 53.461 66.895 145.344 67.051 223.657.078 41.871-33.562 76.097-75.437 76.097H681.012" style="fill:url(#b);fill-opacity:1;fill-rule:nonzero;stroke:none"/></g><g clip-path="url(#c)" transform="matrix(.13333 0 0 -.13333 0 171.587)"><path d="M380.465 704.859v-6.398a8.14 8.14 0 0 1 8.14-8.141c4.497 0 8.133 3.649 8.133 8.141v6.398c0 4.5-3.636 8.137-8.133 8.137-4.5 0-8.14-3.637-8.14-8.137" style="fill:url(#d);fill-opacity:1;fill-rule:nonzero;stroke:none"/></g><g clip-path="url(#e)" transform="matrix(.13333 0 0 -.13333 0 171.587)"><g clip-path="url(#f)"><path d="M385 690v1h-2v1h-1v1h-1v2h-1v13h1v2h1v1h1v1h1v1h9v-1h1v-1h1v-1h1v-1h1v-14h-1v-2h-1v-1h-1v-1h-2v-1" style="fill:url(#g);fill-opacity:1;fill-rule:nonzero;stroke:none"/></g></g><g clip-path="url(#h)" transform="matrix(.13333 0 0 -.13333 0 171.587)"><path d="M271.559 676.781c0-5.976 4.855-10.84 10.836-10.84 5.972 0 10.839 4.864 10.839 10.84v.356c0 5.972-4.867 10.836-10.839 10.836-5.981 0-10.836-4.864-10.836-11.192" style="fill:url(#i);fill-opacity:1;fill-rule:nonzero;stroke:none"/></g><g clip-path="url(#j)" transform="matrix(.13333 0 0 -.13333 0 171.587)"><g clip-path="url(#k)"><path d="M281 665v1h-4v1h-1v1h-2v2h-1v1h-1v3h-1v6h1v3h1v1h1v1h1v1h1v1h2v1h9v-1h2v-1h1v-1h1v-1h1v-2h1v-2h1v-6h-1v-2h-1v-2h-1v-1h-1v-1h-1v-1h-2v-1h-3v-1" style="fill:url(#l);fill-opacity:1;fill-rule:nonzero;stroke:none"/></g></g><g clip-path="url(#m)" transform="matrix(.13333 0 0 -.13333 0 171.587)"><path d="M366.676 1081.91c-5.586 0-10.129-4.54-10.129-10.12V1070c0-5.58 4.543-10.12 10.129-10.12h1.429c5.583 0 10.122 4.54 10.122 10.12v1.79c0 5.58-4.539 10.12-10.122 10.12h-1.429" style="fill:url(#n);fill-opacity:1;fill-rule:nonzero;stroke:none"/></g><g clip-path="url(#o)" transform="matrix(.13333 0 0 -.13333 0 171.587)"><g clip-path="url(#p)"><path d="M365 1059v1h-3v1h-2v1h-1v1h-1v2h-1v2h-1v8h1v2h1v2h1v1h2v1h1v1h11v-1h1v-1h2v-2h1v-1h1v-3h1v-6h-1v-3h-1v-2h-1v-1h-1v-1h-2v-1h-3v-1" style="fill:url(#q);fill-opacity:1;fill-rule:nonzero;stroke:none"/></g></g><g clip-path="url(#r)" transform="matrix(.13333 0 0 -.13333 0 171.587)"><path d="M162.234 853.781c-8.796 0-15.964-7.164-15.964-15.965v-2.824c0-8.804 7.168-15.957 15.964-15.957h2.262c8.801 0 15.965 7.153 15.965 15.957v2.824c0 8.801-7.164 15.965-15.965 15.965h-2.262" style="fill:url(#s);fill-opacity:1;fill-rule:nonzero;stroke:none"/></g><g clip-path="url(#t)" transform="matrix(.13333 0 0 -.13333 0 171.587)"><g clip-path="url(#u)"><path d="M156 819v1h-2v1h-1v1h-2v1h-1v1h-1v2h-1v1h-1v3h-1v13h1v2h1v2h1v1h1v2h2v1h1v1h2v1h2v1h13v-1h2v-1h2v-1h1v-1h1v-1h1v-1h1v-1h1v-2h1v-3h1v-11h-1v-3h-1v-2h-1v-1h-1v-2h-2v-1h-1v-1h-1v-1h-3v-1" style="fill:url(#v);fill-opacity:1;fill-rule:nonzero;stroke:none"/></g></g><g clip-path="url(#w)" transform="matrix(.13333 0 0 -.13333 0 171.587)"><path d="M424.375 1221.23c0-5.97 4.859-10.84 10.836-10.84s10.84 4.87 10.84 10.84v.36c0 5.97-4.863 10.84-10.84 10.84-5.977 0-10.836-4.87-10.836-11.2" style="fill:url(#x);fill-opacity:1;fill-rule:nonzero;stroke:none"/></g><g clip-path="url(#y)" transform="matrix(.13333 0 0 -.13333 0 171.587)"><g clip-path="url(#z)"><path d="M431 1210v1h-2v1h-1v1h-1v1h-1v1h-1v2h-1v8h1v2h1v2h1v1h1v1h2v1h2v1h6v-1h3v-1h1v-1h2v-2h1v-1h1v-4h1v-4h-1v-3h-1v-1h-1v-2h-1v-1h-2v-1h-2v-1" style="fill:url(#A);fill-opacity:1;fill-rule:nonzero;stroke:none"/></g></g><g clip-path="url(#B)" transform="matrix(.13333 0 0 -.13333 0 171.587)"><path d="M377.797 1092.42c0-5.98 4.863-10.83 10.836-10.83 5.976 0 10.84 4.85 10.84 10.83v.36c0 5.98-4.864 10.84-10.84 10.84-5.973 0-10.836-4.86-10.836-11.2" style="fill:url(#C);fill-opacity:1;fill-rule:nonzero;stroke:none"/></g><g clip-path="url(#D)" transform="matrix(.13333 0 0 -.13333 0 171.587)"><g clip-path="url(#E)"><path d="M386 1081v1h-3v1h-1v1h-2v2h-1v1h-1v3h-1v5h1v3h1v1h1v2h1v1h2v1h2v1h7v-1h2v-1h2v-1h1v-1h1v-2h1v-2h1v-7h-1v-2h-1v-2h-1v-1h-1v-1h-2v-1h-2v-1" style="fill:url(#F);fill-opacity:1;fill-rule:nonzero;stroke:none"/></g></g><g clip-path="url(#G)" transform="matrix(.13333 0 0 -.13333 0 171.587)"><path d="M324.176 1060.2c-5.582 0-10.121-4.54-10.121-10.12v-1.8c0-5.58 4.539-10.12 10.121-10.12h1.429c5.583 0 10.122 4.54 10.122 10.12v1.8c0 5.58-4.539 10.12-10.122 10.12h-1.429" style="fill:url(#H);fill-opacity:1;fill-rule:nonzero;stroke:none"/></g><g clip-path="url(#I)" transform="matrix(.13333 0 0 -.13333 0 171.587)"><g clip-path="url(#J)"><path d="M320 1038v1h-2v1h-1v1h-1v1h-1v2h-1v11h1v1h1v2h2v1h1v1h3v1h6v-1h3v-1h1v-1h1v-1h1v-1h1v-2h1v-10h-1v-2h-1v-1h-1v-1h-1v-1h-2v-1" style="fill:url(#K);fill-opacity:1;fill-rule:nonzero;stroke:none"/></g></g><g clip-path="url(#L)" transform="matrix(.13333 0 0 -.13333 0 171.587)"><path d="M268.605 1032.78c-5.582 0-10.125-4.53-10.125-10.12v-1.79c0-5.58 4.543-10.12 10.125-10.12h1.43c5.578 0 10.121 4.54 10.121 10.12v1.79c0 5.59-4.543 10.12-10.121 10.12h-1.43" style="fill:url(#M);fill-opacity:1;fill-rule:nonzero;stroke:none"/></g><g clip-path="url(#N)" transform="matrix(.13333 0 0 -.13333 0 171.587)"><g clip-path="url(#O)"><path d="M266 1010v1h-3v1h-1v1h-1v1h-1v1h-1v2h-1v9h1v2h1v2h1v1h2v1h1v1h10v-1h2v-1h1v-1h1v-1h1v-1h1v-3h1v-6h-1v-3h-1v-2h-1v-1h-1v-1h-2v-1h-3v-1" style="fill:url(#P);fill-opacity:1;fill-rule:nonzero;stroke:none"/></g></g><g clip-path="url(#Q)" transform="matrix(.13333 0 0 -.13333 0 171.587)"><path d="M399.043 1114.14c0-5.98 4.863-10.84 10.836-10.84 5.98 0 10.848 4.86 10.848 10.84v.36c0 5.97-4.868 10.83-10.848 10.83-5.973 0-10.836-4.86-10.836-11.19" style="fill:url(#R);fill-opacity:1;fill-rule:nonzero;stroke:none"/></g><g clip-path="url(#S)" transform="matrix(.13333 0 0 -.13333 0 171.587)"><g clip-path="url(#T)"><path d="M406 1103v1h-2v1h-2v1h-1v2h-1v1h-1v10h1v2h1v1h1v1h1v1h1v1h3v1h6v-1h2v-1h2v-1h1v-1h1v-2h1v-1h1v-9h-1v-2h-1v-1h-1v-1h-1v-1h-1v-1h-2v-1" style="fill:url(#U);fill-opacity:1;fill-rule:nonzero;stroke:none"/></g></g><g clip-path="url(#V)" transform="matrix(.13333 0 0 -.13333 0 171.587)"><path d="M324.176 940.844c-5.582 0-10.121-4.543-10.121-10.125v-15.828c0-5.582 4.539-10.121 10.121-10.121h1.433c5.582 0 10.125 4.539 10.125 10.121l-.007 15.828c0 5.582-4.539 10.125-10.122 10.125h-1.429" style="fill:url(#W);fill-opacity:1;fill-rule:nonzero;stroke:none"/></g><g clip-path="url(#X)" transform="matrix(.13333 0 0 -.13333 0 171.587)"><g clip-path="url(#Y)"><path d="M322 904v1h-3v1h-1v1h-2v2h-1v1h-1v25h1v2h1v1h1v1h1v1h2v1h10v-1h2v-1h1v-1h1v-1h1v-2h1v-24h-1v-2h-1v-1h-1v-1h-1v-1h-1v-1h-3v-1" style="fill:url(#Z);fill-opacity:1;fill-rule:nonzero;stroke:none"/></g></g><g clip-path="url(#aa)" transform="matrix(.13333 0 0 -.13333 0 171.587)"><path d="M409.164 1188.47c-5.586 0-10.121-4.55-10.121-10.13v-15.83c0-5.58 4.535-10.12 10.121-10.12h1.438c5.586 0 10.125 4.54 10.125 10.12l-.008 15.83c0 5.58-4.535 10.13-10.121 10.13h-1.434" style="fill:url(#ab);fill-opacity:1;fill-rule:nonzero;stroke:none"/></g><g clip-path="url(#ac)" transform="matrix(.13333 0 0 -.13333 0 171.587)"><g clip-path="url(#ad)"><path d="M405 1152v1h-1v1h-2v1h-1v1h-1v2h-1v25h1v1h1v2h1v1h2v1h2v1h8v-1h2v-1h2v-1h1v-2h1v-2h1v-24h-1v-1h-1v-2h-1v-1h-2v-1h-2v-1" style="fill:url(#ae);fill-opacity:1;fill-rule:nonzero;stroke:none"/></g></g><g clip-path="url(#af)" transform="matrix(.13333 0 0 -.13333 0 171.587)"><path d="M324.176 1125.33c-5.586 0-10.129-4.54-10.129-10.12v-15.83c0-5.58 4.543-10.13 10.129-10.13h1.433c5.582 0 10.125 4.55 10.125 10.13l-.007 15.83c0 5.58-4.539 10.12-10.125 10.12h-1.426" style="fill:url(#ag);fill-opacity:1;fill-rule:nonzero;stroke:none"/></g><g clip-path="url(#ah)" transform="matrix(.13333 0 0 -.13333 0 171.587)"><g clip-path="url(#ai)"><path d="M320 1089v1h-2v1h-1v1h-1v1h-1v2h-1v25h1v1h1v2h1v1h2v1h2v1h7v-1h3v-1h1v-1h2v-2h1v-2h1v-24h-1v-1h-1v-2h-1v-1h-2v-1h-1v-1" style="fill:url(#aj);fill-opacity:1;fill-rule:nonzero;stroke:none"/></g></g><g clip-path="url(#ak)" transform="matrix(.13333 0 0 -.13333 0 171.587)"><path d="M345.195 1020.17c-7.3 0-13.238-5.94-13.238-13.25v-2.34c0-7.303 5.938-13.236 13.238-13.236h1.879c7.301 0 13.246 5.933 13.246 13.236v2.34c0 7.31-5.945 13.25-13.246 13.25h-1.879" style="fill:url(#al);fill-opacity:1;fill-rule:nonzero;stroke:none"/></g><g clip-path="url(#am)" transform="matrix(.13333 0 0 -.13333 0 171.587)"><g clip-path="url(#an)"><path d="M341 991v1h-3v1h-1v1h-1v1h-1v1h-1v1h-1v2h-1v4h-1v5h1v5h1v1h1v2h1v1h1v1h1v1h2v1h4v1h6v-1h4v-1h2v-1h1v-1h1v-1h1v-1h1v-2h1v-3h1v-9h-1v-3h-1v-1h-1v-2h-1v-1h-2v-1h-1v-1h-3v-1" style="fill:url(#ao);fill-opacity:1;fill-rule:nonzero;stroke:none"/></g></g><g clip-path="url(#ap)" transform="matrix(.13333 0 0 -.13333 0 171.587)"><path d="M289.855 986.422c-5.585 0-10.128-4.535-10.128-10.117v-1.789c0-5.575 4.543-10.118 10.128-10.118h1.43c5.578 0 10.121 4.543 10.121 10.118v1.789c0 5.582-4.543 10.117-10.121 10.117h-1.43" style="fill:url(#aq);fill-opacity:1;fill-rule:nonzero;stroke:none"/></g><g clip-path="url(#ar)" transform="matrix(.13333 0 0 -.13333 0 171.587)"><g clip-path="url(#as)"><path d="M286 964v1h-2v1h-1v1h-1v1h-1v1h-1v3h-1v7h1v2h1v2h1v1h1v1h1v1h3v1h7v-1h3v-1h1v-1h1v-1h1v-1h1v-3h1v-7h-1v-3h-1v-1h-1v-1h-1v-1h-1v-1h-2v-1" style="fill:url(#at);fill-opacity:1;fill-rule:nonzero;stroke:none"/></g></g><g clip-path="url(#au)" transform="matrix(.13333 0 0 -.13333 0 171.587)"><path d="M270.84 1092.61c-5.582 0-10.121-4.55-10.121-10.13v-1.79c0-5.58 4.539-10.12 10.121-10.12h1.437c5.578 0 10.121 4.54 10.121 10.12v1.79c0 5.58-4.543 10.13-10.121 10.13h-1.437" style="fill:url(#av);fill-opacity:1;fill-rule:nonzero;stroke:none"/></g><g clip-path="url(#aw)" transform="matrix(.13333 0 0 -.13333 0 171.587)"><g clip-path="url(#ax)"><path d="M268 1070v1h-3v1h-1v1h-1v1h-1v2h-1v2h-1v7h1v3h1v1h1v1h1v1h1v1h2v1h9v-1h2v-1h1v-1h1v-1h1v-1h1v-3h1v-7h-1v-3h-1v-1h-1v-1h-1v-1h-1v-1h-3v-1" style="fill:url(#ay);fill-opacity:1;fill-rule:nonzero;stroke:none"/></g></g><g clip-path="url(#az)" transform="matrix(.13333 0 0 -.13333 0 171.587)"><path d="M281.43 908.949c-7.539 0-13.672-6.133-13.672-13.668v-2.414c0-7.535 6.133-13.672 13.672-13.672h1.933c7.535 0 13.668 6.137 13.668 13.672v2.414c0 7.535-6.133 13.668-13.668 13.668h-1.933" style="fill:url(#aA);fill-opacity:1;fill-rule:nonzero;stroke:none"/></g><g clip-path="url(#aB)" transform="matrix(.13333 0 0 -.13333 0 171.587)"><g clip-path="url(#aC)"><path d="M276 879v1h-2v1h-1v1h-1v1h-1v1h-1v1h-1v2h-1v3h-1v8h1v3h1v2h1v2h1v1h2v1h1v1h2v1h13v-1h2v-1h1v-1h1v-1h1v-1h1v-1h1v-2h1v-4h1v-6h-1v-4h-1v-2h-1v-1h-1v-1h-1v-1h-1v-1h-1v-1h-3v-1" style="fill:url(#aD);fill-opacity:1;fill-rule:nonzero;stroke:none"/></g></g><g clip-path="url(#aE)" transform="matrix(.13333 0 0 -.13333 0 171.587)"><path d="M151.813 753.109c-5.586 0-10.122-4.543-10.122-10.125v-1.789c0-5.578 4.536-10.125 10.122-10.125h1.433c5.578 0 10.117 4.547 10.117 10.125v1.789c0 5.582-4.539 10.125-10.117 10.125h-1.433" style="fill:url(#aF);fill-opacity:1;fill-rule:nonzero;stroke:none"/></g><g clip-path="url(#aG)" transform="matrix(.13333 0 0 -.13333 0 171.587)"><g clip-path="url(#aH)"><path d="M147 731v1h-1v1h-2v2h-1v1h-1v3h-1v7h1v2h1v2h1v1h1v1h2v1h3v1h5v-1h3v-1h2v-1h1v-1h1v-2h1v-2h1v-8h-1v-2h-1v-2h-1v-1h-2v-1h-1v-1" style="fill:url(#aI);fill-opacity:1;fill-rule:nonzero;stroke:none"/></g></g><g clip-path="url(#aJ)" transform="matrix(.13333 0 0 -.13333 0 171.587)"><path d="M246.008 836.41c-5.781 0-10.485-4.703-10.485-10.488v-1.852c0-5.781 4.704-10.48 10.485-10.48h1.476c5.789 0 10.489 4.699 10.489 10.48v1.852c0 5.785-4.7 10.488-10.489 10.488h-1.476" style="fill:url(#aK);fill-opacity:1;fill-rule:nonzero;stroke:none"/></g><g clip-path="url(#aL)" transform="matrix(.13333 0 0 -.13333 0 171.587)"><g clip-path="url(#aM)"><path d="M243 813v1h-2v1h-2v1h-1v1h-1v2h-1v2h-1v8h1v2h1v2h1v1h1v1h2v1h2v1h8v-1h2v-1h1v-1h2v-2h1v-1h1v-12h-1v-1h-1v-2h-2v-1h-1v-1h-2v-1" style="fill:url(#aN);fill-opacity:1;fill-rule:nonzero;stroke:none"/></g></g><g clip-path="url(#aO)" transform="matrix(.13333 0 0 -.13333 0 171.587)"><path d="M314.055 655.422v-.356c0-5.976 4.859-10.839 10.832-10.839 5.98 0 10.847 4.863 10.847 11.195 0 5.973-4.867 10.836-10.847 10.836-5.973 0-10.832-4.863-10.832-10.836" style="fill:url(#aP);fill-opacity:1;fill-rule:nonzero;stroke:none"/></g><g clip-path="url(#aQ)" transform="matrix(.13333 0 0 -.13333 0 171.587)"><g clip-path="url(#aR)"><path d="M320 644v1h-1v1h-2v1h-1v2h-1v1h-1v10h1v2h1v1h1v1h1v1h2v1h2v1h5v-1h3v-1h2v-1h1v-1h1v-2h1v-1h1v-9h-1v-2h-1v-1h-1v-1h-1v-1h-1v-1h-2v-1" style="fill:url(#aS);fill-opacity:1;fill-rule:nonzero;stroke:none"/></g></g><g clip-path="url(#aT)" transform="matrix(.13333 0 0 -.13333 0 171.587)"><path d="M250.309 763.625c0-5.977 4.863-10.832 10.839-10.832 5.977 0 10.84 4.855 10.84 10.832v.352c0 5.98-4.863 10.839-10.843 10.839-5.973 0-10.836-4.859-10.836-11.191" style="fill:url(#aU);fill-opacity:1;fill-rule:nonzero;stroke:none"/></g><g clip-path="url(#aV)" transform="matrix(.13333 0 0 -.13333 0 171.587)"><g clip-path="url(#aW)"><path d="M259 752v1h-3v1h-2v1h-1v1h-1v2h-1v2h-1v8h1v2h1v1h1v1h1v1h1v1h2v1h9v-1h1v-1h2v-1h1v-2h1v-1h1v-10h-1v-2h-1v-1h-1v-1h-1v-1h-2v-1h-3v-1" style="fill:url(#aX);fill-opacity:1;fill-rule:nonzero;stroke:none"/></g></g><g clip-path="url(#aY)" transform="matrix(.13333 0 0 -.13333 0 171.587)"><path d="M335.309 633.355c0-5.976 4.851-10.839 10.836-10.839 5.972 0 10.832 4.863 10.832 10.839v.364c0 5.965-4.86 10.828-10.832 10.828-5.985 0-10.836-4.863-10.836-11.192" style="fill:url(#aZ);fill-opacity:1;fill-rule:nonzero;stroke:none"/></g><g clip-path="url(#ba)" transform="matrix(.13333 0 0 -.13333 0 171.587)"><g clip-path="url(#bb)"><path d="M343 622v1h-3v1h-1v1h-1v1h-1v1h-1v2h-1v9h1v2h1v1h1v1h1v1h1v1h3v1h7v-1h2v-1h1v-1h2v-2h1v-1h1v-11h-1v-1h-1v-2h-2v-1h-1v-1h-3v-1" style="fill:url(#bc);fill-opacity:1;fill-rule:nonzero;stroke:none"/></g></g><g clip-path="url(#bd)" transform="matrix(.13333 0 0 -.13333 0 171.587)"><path d="M314.055 611.637c0-5.973 4.859-10.828 10.832-10.828 5.98 0 10.847 4.855 10.847 10.828V612c0 5.977-4.867 10.84-10.847 10.84-5.973 0-10.832-4.863-10.832-11.203" style="fill:url(#be);fill-opacity:1;fill-rule:nonzero;stroke:none"/></g><g clip-path="url(#bf)" transform="matrix(.13333 0 0 -.13333 0 171.587)"><g clip-path="url(#bg)"><path d="M323 600v1h-3v1h-2v1h-1v1h-1v1h-1v2h-1v10h1v1h1v2h1v1h2v1h1v1h10v-1h1v-1h2v-2h1v-1h1v-2h1v-9h-1v-1h-1v-2h-1v-1h-1v-1h-2v-1h-3v-1" style="fill:url(#bh);fill-opacity:1;fill-rule:nonzero;stroke:none"/></g></g><g clip-path="url(#bi)" transform="matrix(.13333 0 0 -.13333 0 171.587)"><path d="M331.957 698.43c0-7.813 6.359-14.176 14.188-14.176 7.816 0 14.175 6.363 14.175 14.176v.472c0 7.813-6.359 14.18-14.175 14.18-7.829 0-14.188-6.367-14.188-14.652" style="fill:url(#bj);fill-opacity:1;fill-rule:nonzero;stroke:none"/></g><g clip-path="url(#bk)" transform="matrix(.13333 0 0 -.13333 0 171.587)"><g clip-path="url(#bl)"><path d="M341 684v1h-2v1h-2v1h-1v1h-1v1h-1v2h-1v2h-1v4h-1v3h1v4h1v2h1v2h1v1h1v1h1v1h1v1h2v1h4v1h4v-1h4v-1h2v-1h1v-1h2v-2h1v-1h1v-2h1v-3h1v-7h-1v-3h-1v-2h-1v-1h-1v-1h-1v-1h-1v-1h-2v-1h-2v-1" style="fill:url(#bm);fill-opacity:1;fill-rule:nonzero;stroke:none"/></g></g><g clip-path="url(#bn)" transform="matrix(.13333 0 0 -.13333 0 171.587)"><path d="M262.867 724.227c0-9.543 7.758-17.297 17.289-17.297 9.535 0 17.293 7.754 17.293 17.297v.57c0 9.535-7.758 17.289-17.293 17.289-9.531 0-17.289-7.754-17.289-17.859" style="fill:url(#bo);fill-opacity:1;fill-rule:nonzero;stroke:none"/></g><g clip-path="url(#bp)" transform="matrix(.13333 0 0 -.13333 0 171.587)"><g clip-path="url(#bq)"><path d="M278 706v1h-4v1h-2v1h-2v1h-1v1h-2v2h-1v1h-1v2h-1v2h-1v4h-1v5h1v4h1v2h1v1h1v2h1v1h1v1h1v1h1v1h2v1h2v1h4v1h5v-1h3v-1h2v-1h2v-1h1v-1h2v-1h1v-2h1v-1h1v-2h1v-3h1v-9h-1v-3h-1v-2h-1v-1h-1v-2h-1v-1h-2v-1h-1v-1h-2v-1h-2v-1h-3v-1" style="fill:url(#br);fill-opacity:1;fill-rule:nonzero;stroke:none"/></g></g><g clip-path="url(#bs)" transform="matrix(.13333 0 0 -.13333 0 171.587)"><path d="M85.644 1060.02c0-5.98 4.864-10.84 10.836-10.84 5.977 0 10.84 4.86 10.84 10.84v.36c0 5.97-4.863 10.83-10.84 10.83-5.972 0-10.836-4.86-10.836-11.19" style="fill:url(#bt);fill-opacity:1;fill-rule:nonzero;stroke:none"/></g><g clip-path="url(#bu)" transform="matrix(.13333 0 0 -.13333 0 171.587)"><g clip-path="url(#bv)"><path d="M92 1049v1h-2v1h-1v1h-1v1h-1v2h-1v2h-1v6h1v3h1v1h1v2h2v1h1v1h3v1h5v-1h3v-1h1v-1h2v-2h1v-1h1v-3h1v-6h-1v-2h-1v-2h-1v-1h-1v-1h-1v-1h-2v-1" style="fill:url(#bw);fill-opacity:1;fill-rule:nonzero;stroke:none"/></g></g><g clip-path="url(#bx)" transform="matrix(.13333 0 0 -.13333 0 171.587)"><path d="M239.184 905.09c-5.579 0-10.125-4.539-10.125-10.121v-1.789c0-5.586 4.546-10.125 10.125-10.125h1.429c5.582 0 10.125 4.539 10.125 10.125v1.789c0 5.582-4.543 10.121-10.125 10.121h-1.429" style="fill:url(#by);fill-opacity:1;fill-rule:nonzero;stroke:none"/></g><g clip-path="url(#bz)" transform="matrix(.13333 0 0 -.13333 0 171.587)"><g clip-path="url(#bA)"><path d="M235 883v1h-2v1h-1v1h-1v1h-1v2h-1v11h1v1h1v2h2v1h1v1h3v1h5v-1h3v-1h2v-1h1v-1h1v-1h1v-2h1v-10h-1v-2h-1v-1h-1v-1h-1v-1h-2v-1" style="fill:url(#bB);fill-opacity:1;fill-rule:nonzero;stroke:none"/></g></g><g clip-path="url(#bC)" transform="matrix(.13333 0 0 -.13333 0 171.587)"><path d="M271.559 785.332c0-5.973 4.855-10.836 10.836-10.836 5.972 0 10.839 4.863 10.839 10.836v.363c0 5.973-4.867 10.832-10.839 10.832-5.981 0-10.836-4.859-10.836-11.195" style="fill:url(#bD);fill-opacity:1;fill-rule:nonzero;stroke:none"/></g><g clip-path="url(#bE)" transform="matrix(.13333 0 0 -.13333 0 171.587)"><g clip-path="url(#bF)"><path d="M279 774v1h-2v1h-2v1h-1v1h-1v2h-1v2h-1v7h1v2h1v2h1v1h1v1h2v1h2v1h7v-1h2v-1h2v-1h1v-2h1v-1h1v-3h1v-5h-1v-3h-1v-1h-1v-2h-1v-1h-2v-1h-2v-1" style="fill:url(#bG);fill-opacity:1;fill-rule:nonzero;stroke:none"/></g></g><g clip-path="url(#bH)" transform="matrix(.13333 0 0 -.13333 0 171.587)"><path d="M0 873.113c0-5.976 4.863-10.836 10.84-10.836 5.973 0 10.836 4.86 10.836 10.836v.356c0 5.976-4.863 10.836-10.836 10.836-5.977 0-10.84-4.86-10.84-11.192" style="fill:url(#bI);fill-opacity:1;fill-rule:nonzero;stroke:none"/></g><g clip-path="url(#bJ)" transform="matrix(.13333 0 0 -.13333 0 171.587)"><g clip-path="url(#bK)"><path d="M7 862v1H5v1H3v1H2v2H1v1H0v10h1v2h1v1h1v1h1v1h1v1h3v1h6v-1h2v-1h2v-1h1v-1h1v-2h1v-1h1v-9h-1v-2h-1v-1h-1v-1h-1v-1h-1v-1h-2v-1" style="fill:url(#bL);fill-opacity:1;fill-rule:nonzero;stroke:none"/></g></g><g clip-path="url(#bM)" transform="matrix(.13333 0 0 -.13333 0 171.587)"><path d="M335.309 768.637c0-5.977 4.851-10.84 10.836-10.84 5.972 0 10.832 4.863 10.832 10.84v.355c0 5.977-4.86 10.84-10.832 10.84-5.985 0-10.836-4.863-10.836-11.195" style="fill:url(#bN);fill-opacity:1;fill-rule:nonzero;stroke:none"/></g><g clip-path="url(#bO)" transform="matrix(.13333 0 0 -.13333 0 171.587)"><g clip-path="url(#bP)"><path d="M344 757v1h-3v1h-2v1h-1v1h-1v2h-1v2h-1v8h1v2h1v1h1v1h1v1h1v1h2v1h9v-1h1v-1h2v-1h1v-2h1v-1h1v-10h-1v-2h-1v-1h-1v-1h-1v-1h-2v-1h-3v-1" style="fill:url(#bQ);fill-opacity:1;fill-rule:nonzero;stroke:none"/></g></g><g clip-path="url(#bR)" transform="matrix(.13333 0 0 -.13333 0 171.587)"><path d="M314.055 741.914c0-5.98 4.859-10.848 10.832-10.848 5.98 0 10.847 4.868 10.847 10.848v.356c0 5.98-4.867 10.843-10.847 10.843-5.973 0-10.832-4.863-10.832-11.199" style="fill:url(#bS);fill-opacity:1;fill-rule:nonzero;stroke:none"/></g><g clip-path="url(#bT)" transform="matrix(.13333 0 0 -.13333 0 171.587)"><g clip-path="url(#bU)"><path d="M320 731v1h-1v1h-2v1h-1v2h-1v1h-1v10h1v2h1v1h1v1h1v1h2v1h3v1h4v-1h3v-1h1v-1h2v-1h1v-2h1v-1h1v-9h-1v-2h-1v-2h-1v-1h-2v-1h-1v-1" style="fill:url(#bV);fill-opacity:1;fill-rule:nonzero;stroke:none"/></g></g><g clip-path="url(#bW)" transform="matrix(.13333 0 0 -.13333 0 171.587)"><path d="M324.176 861.664c-5.582 0-10.121-4.539-10.121-10.117v-1.07c0-5.977 4.859-10.844 10.832-10.844 5.98 0 10.847 4.867 10.847 10.844v1.07c0 5.578-4.543 10.117-10.125 10.117h-1.433" style="fill:url(#bX);fill-opacity:1;fill-rule:nonzero;stroke:none"/></g><g clip-path="url(#bY)" transform="matrix(.13333 0 0 -.13333 0 171.587)"><g clip-path="url(#bZ)"><path d="M322 839v1h-3v1h-1v1h-1v1h-1v1h-1v2h-1v10h1v2h1v1h1v1h1v1h2v1h10v-1h1v-1h2v-1h1v-2h1v-1h1v-10h-1v-2h-1v-1h-1v-1h-1v-1h-2v-1h-2v-1" style="fill:url(#ca);fill-opacity:1;fill-rule:nonzero;stroke:none"/></g></g><g clip-path="url(#cb)" transform="matrix(.13333 0 0 -.13333 0 171.587)"><path d="M613.121 1285.71c-3.359-.33-7.414-.71-12.922-1.17-4.402-.36-7.844-4.04-7.844-8.46v-15.46c0-1.74-1.417-3.15-3.152-3.15h-11.629a3.15 3.15 0 0 0-3.148 3.15v9.45c0 2.66-1.211 5.11-3.317 6.74a8.316 8.316 0 0 1-7.23 1.51 289.53 289.53 0 0 1-24.094-7.39c-3.363-1.2-5.582-4.44-5.582-8.01V1249c0-4.64 3.727-8.42 8.348-8.48 1.797-.04 3.277-1.36 3.277-3.15v-51.21c0-5.58-4.515-10.09-10.086-10.09h-21.094c-5.527 0-10 4.47-10 10v16.41a3.15 3.15 0 0 0 3.145 3.15h11.223a8.89 8.89 0 0 1 8.89 8.89v11.21c0 4.69-3.801 8.48-8.48 8.48h-11.633a8.473 8.473 0 0 1-8.477-8.48v-.95c0-6.09-2.906-11.86-7.925-15.3a8.466 8.466 0 0 1-3.7-7v-14.46c0-6.6-5.355-11.95-11.957-11.95h-14.457c-4.679 0-8.48-3.8-8.48-8.48v-34.89c0-4.68 3.801-8.49 8.48-8.49h11.629c4.688 0 8.481 3.81 8.481 8.49v23.26a3.16 3.16 0 0 0 3.148 3.15 3.162 3.162 0 0 0 3.156-3.15c0-4.68 3.797-8.48 8.477-8.48h11.625c4.633 0 8.406 3.73 8.484 8.34.028 1.8 1.356 3.29 3.149 3.29h23.262c1.738 0 3.14-1.41 3.14-3.15v-10.31a8.55 8.55 0 0 1 3.574-6.93c2.254-1.6 5.016-2.01 7.606-1.11 4.805 1.65 5.785 3.73 5.785 6.35v23.63c0 1.74 1.406 3.14 3.148 3.14h23.262a3.152 3.152 0 0 0 3.152-3.14v-8.91c0-2.52 1.09-4.88 3.012-6.51a8.306 8.306 0 0 1 6.785-1.87c9.2 1.54 26.184 2.34 38.215 2.34 36.66 0 68.992-6.98 101.766-21.98 32.773-15 54.414-30.32 79.914-56.55 8.016-7.73 23.984-20.12 43.933-20.12 13.02 0 27.735 5.28 43.047 20.58l11.543 11.64c21.504 21.65 21.778 56.92.43 78.8l-2.09-1.67 1.906 1.86-.011.01c-40.742 41.63-78.711 69.04-123.106 88.86-32.078 14.32-58.094 24.83-100.996 29.65-2.898.33-5.769-.6-7.937-2.52a10.142 10.142 0 0 1-3.379-7.54v-1.4c0-1.74-1.407-3.15-3.145-3.15H658.98a3.156 3.156 0 0 0-3.156 3.15v2.59c0 6.28-4.871 11.47-11.14 11.78-2.715.14-5.801.23-9.485.23-10.078 0-14.344-.4-22.078-1.15m-13.019-46.97v7.29c0 1.74 1.406 3.15 3.144 3.15h7.285a3.156 3.156 0 0 0 3.157-3.15v-7.29c0-1.73-1.418-3.14-3.157-3.14h-7.285a3.144 3.144 0 0 0-3.144 3.14m102.226-13.22v9.51c0 3.6 2.93 6.52 6.524 6.52h8.906c3.605 0 6.535-2.92 6.535-6.52v-9.51c0-3.6-2.93-6.53-6.535-6.53h-8.906c-3.594 0-6.524 2.93-6.524 6.53m-51.707-16.51v6.01c0 1.74 1.414 3.15 3.152 3.15h5.637a3.147 3.147 0 0 0 3.145-3.15v-6.01c0-1.74-1.407-3.15-3.145-3.15h-5.637a3.153 3.153 0 0 0-3.152 3.15m-88.195-16.93v11.63c0 1.73 1.418 3.14 3.148 3.14h11.629a3.148 3.148 0 0 0 3.149-3.14v-11.63a3.15 3.15 0 0 0-3.149-3.15h-11.629a3.154 3.154 0 0 0-3.148 3.15m56.875-15.17v5.07c0 1.74 1.406 3.15 3.144 3.15h4.727a3.15 3.15 0 0 0 3.144-3.15v-5.07c0-1.73-1.414-3.15-3.144-3.15h-4.727a3.152 3.152 0 0 0-3.144 3.15" style="fill:url(#cc);fill-opacity:1;fill-rule:nonzero;stroke:none"/></g><g clip-path="url(#cd)" transform="matrix(.13333 0 0 -.13333 0 171.587)"><g clip-path="url(#ce)"><path d="M862 1053v1h-5v1h-5v1h-3v1h-2v1h-3v1h-2v1h-3v1h-1v1h-2v1h-1v1h-2v1h-1v1h-2v1h-1v1h-2v1h-1v1h-1v1h-1v1h-1v1h-1v1h-1v1h-1v1h-1v1h-1v1h-1v1h-1v1h-1v1h-1v1h-1v1h-1v1h-2v1h-1v1h-1v1h-1v1h-1v1h-1v1h-1v1h-1v1h-1v1h-2v1h-1v1h-1v1h-1v1h-1v1h-2v1h-1v1h-1v1h-2v1h-1v1h-1v1h-2v1h-1v1h-1v1h-2v1h-1v1h-2v1h-1v1h-2v1h-1v1h-2v1h-2v1h-1v1h-2v1h-2v1h-1v1h-2v1h-2v1h-2v1h-2v1h-2v1h-2v1h-2v1h-2v1h-2v1h-2v1h-2v1h-2v1h-2v1h-2v1h-3v1h-3v1h-2v1h-3v1h-3v1h-2v1h-3v1h-3v1h-4v1h-3v1h-4v1h-4v1h-3v1h-4v1h-5v1h-7v1h-6v1h-6v1h-13v1h-36v-1h-12v-1h-11v1h-2v1h-1v1h-1v2h-1v13h-1v2h-27v-2h-1v-27h-1v-2h-1v-1h-2v-1h-9v1h-1v1h-1v1h-1v1h-1v3h-1v14h-2v1h-24v-1h-1v-1h-1v-3h-1v-3h-1v-1h-1v-1h-1v-1h-2v-1h-18v1h-2v1h-1v1h-1v1h-1v3h-1v3h-1v1h-1v1h-1v-1h-1v-1h-1v-27h-1v-2h-1v-2h-2v-1h-1v-1h-20v1h-1v1h-1v1h-1v1h-1v3h-1v39h1v2h1v2h1v1h2v1h3v1h20v1h2v1h1v1h1v1h1v1h1v3h1v20h1v2h1v2h1v1h2v1h1v1h1v1h1v2h1v1h1v3h1v3h1v8h1v1h1v1h1v1h1v1h3v1h16v-1h2v-1h2v-2h1v-1h1v-20h-1v-1h-1v-1h-1v-1h-1v-1h-2v-1h-15v-1h-1v-1h-1v-19h1v-2h1v-2h1v-1h2v-1h1v-1h28v1h2v1h1v1h1v1h1v2h1v56h-1v1h-4v1h-2v1h-2v2h-1v1h-1v22h1v2h1v1h2v1h1v1h3v1h4v1h3v1h3v1h4v1h3v1h3v1h7v-1h2v-1h1v-1h1v-1h1v-2h1v-14h1v-1h14v1h1v1h1v20h1v1h1v2h2v1h2v1h7v1h11v1h32v-1h2v-1h2v-1h1v-1h1v-2h1v-1h1v-8h1v-2h27v1h1v6h1v2h1v2h1v1h1v1h2v1h12v-1h7v-1h6v-1h5v-1h6v-1h4v-1h4v-1h5v-1h3v-1h3v-1h4v-1h3v-1h3v-1h3v-1h3v-1h3v-1h2v-1h3v-1h2v-1h3v-1h2v-1h3v-1h2v-1h3v-1h2v-1h2v-1h3v-1h2v-1h2v-1h2v-1h3v-1h2v-1h2v-1h2v-1h2v-1h2v-1h2v-1h2v-1h2v-1h1v-1h2v-1h2v-1h2v-1h2v-1h2v-1h2v-1h1v-1h2v-1h2v-1h1v-1h2v-1h1v-1h2v-1h1v-1h2v-1h1v-1h2v-1h1v-1h2v-1h2v-1h1v-1h2v-1h1v-1h2v-1h1v-1h2v-1h1v-1h1v-1h2v-1h1v-1h1v-1h1v-1h2v-1h1v-1h1v-1h1v-1h2v-1h1v-1h1v-1h1v-1h2v-1h1v-1h1v-1h1v-1h2v-1h1v-1h1v-1h1v-1h2v-1h1v-1h1v-1h1v-1h1v-1h1v-1h1v-1h1v-1h2v-1h1v-1h1v-1h1v-1h1v-1h1v-1h1v-1h1v-1h1v-1h1v-1h1v-1h1v-1h1v-1h2v-1h1v-1h1v-1h1v-1h1v-1h1v-1h1v-1h1v-1h1v-1h1v-2h1v-1h1v-1h1v-1h1v-2h1v-1h1v-1h1v-2h1v-2h1v-2h1v-2h1v-2h1v-4h1v-3h1v-4h1v-19h-1v-5h-1v-4h-1v-3h-1v-2h-1v-2h-1v-2h-1v-2h-1v-2h-1v-1h-1v-2h-1v-1h-1v-1h-1v-2h-1v-1h-1v-1h-1v-1h-1v-1h-1v-1h-1v-1h-1v-1h-1v-1h-1v-1h-1v-1h-1v-1h-1v-1h-1v-1h-1v-1h-1v-1h-1v-1h-1v-1h-1v-1h-2v-1h-1v-1h-1v-1h-1v-1h-1v-1h-2v-1h-1v-1h-2v-1h-2v-1h-2v-1h-1v-1h-2v-1h-3v-1h-3v-1h-3v-1h-3v-1h-7v-1zm-240 122v-1h6v1h1v1h1v7h-1v1h-2v1h-5v-1h-1v-1h-1v-7h1v-1zm-56 15v-1h11v1h2v1h1v14h-1v1h-15v-1h-1v-14h1v-1zm87 17v-1h7v1h1v1h1v8h-1v1h-1v1h-7v-1h-1v-1h-1v-8h1v-1zm56 13v-1h9v1h3v1h1v1h1v2h1v12h-1v2h-1v1h-1v1h-1v1h-13v-1h-2v-1h-1v-2h-1v-14h1v-1h1v-1h1v-1zm-107 17v-1h9v1h2v10h-1v1h-1v1h-8v-1h-2v-11" style="fill:url(#cf);fill-opacity:1;fill-rule:nonzero;stroke:none"/></g></g><g clip-path="url(#cg)" transform="matrix(.13333 0 0 -.13333 0 171.587)"><path d="M431.305 1100.95c-4.606 0-8.34-3.74-8.34-8.34 0-4.63 3.734-8.36 8.34-8.36H434a8.347 8.347 0 0 1 8.348 8.36c0 4.6-3.739 8.34-8.348 8.34h-2.695" style="fill:url(#ch);fill-opacity:1;fill-rule:nonzero;stroke:none"/></g><g clip-path="url(#ci)" transform="matrix(.13333 0 0 -.13333 0 171.587)"><g clip-path="url(#cj)"><path d="M427 1084v1h-1v1h-1v1h-1v1h-1v3h-1v3h1v3h1v1h1v1h1v1h1v1h11v-1h2v-1h1v-2h1v-2h1v-5h-1v-2h-1v-2h-2v-1h-1v-1" style="fill:url(#ck);fill-opacity:1;fill-rule:nonzero;stroke:none"/></g></g><g clip-path="url(#cl)" transform="matrix(.13333 0 0 -.13333 0 171.587)"><path d="M333.961 1178.78a8.352 8.352 0 0 1-8.352-8.35v-.01c0-4.61 3.739-8.35 8.352-8.35h2.684a8.348 8.348 0 0 1 8.351 8.35v.01c0 4.61-3.734 8.35-8.351 8.35h-2.684" style="fill:url(#cm);fill-opacity:1;fill-rule:nonzero;stroke:none"/></g><g clip-path="url(#cn)" transform="matrix(.13333 0 0 -.13333 0 171.587)"><g clip-path="url(#co)"><path d="M330 1162v1h-2v1h-1v2h-1v2h-1v5h1v2h1v2h2v1h1v1h11v-1h1v-1h1v-1h1v-1h1v-9h-1v-1h-1v-1h-1v-1h-1v-1" style="fill:url(#cp);fill-opacity:1;fill-rule:nonzero;stroke:none"/></g></g><g clip-path="url(#cq)" transform="matrix(.13333 0 0 -.13333 0 171.587)"><path d="M364.059 1160.46a8.35 8.35 0 1 1 0-16.7h2.683a8.35 8.35 0 0 1 8.352 8.35 8.35 8.35 0 0 1-8.352 8.35h-2.683" style="fill:url(#cr);fill-opacity:1;fill-rule:nonzero;stroke:none"/></g><g clip-path="url(#cs)" transform="matrix(.13333 0 0 -.13333 0 171.587)"><g clip-path="url(#ct)"><path d="M362 1143v1h-3v1h-1v1h-1v1h-1v3h-1v5h1v2h1v1h1v1h1v1h2v1h9v-1h2v-1h1v-1h1v-1h1v-3h1v-4h-1v-2h-1v-2h-1v-1h-2v-1h-2v-1" style="fill:url(#cu);fill-opacity:1;fill-rule:nonzero;stroke:none"/></g></g><g clip-path="url(#cv)" transform="matrix(.13333 0 0 -.13333 0 171.587)"><path d="M379.117 1205.16a8.345 8.345 0 0 1-8.351-8.35c0-4.61 3.738-8.34 8.351-8.34h2.692c4.609 0 8.347 3.73 8.347 8.34 0 4.62-3.738 8.35-8.347 8.35h-2.692" style="fill:url(#cw);fill-opacity:1;fill-rule:nonzero;stroke:none"/></g><g clip-path="url(#cx)" transform="matrix(.13333 0 0 -.13333 0 171.587)"><g clip-path="url(#cy)"><path d="M376 1188v1h-2v1h-1v1h-1v1h-1v3h-1v4h1v2h1v2h1v1h2v1h2v1h7v-1h2v-1h2v-1h1v-2h1v-2h1v-4h-1v-3h-1v-1h-1v-1h-1v-1h-2v-1" style="fill:url(#cz);fill-opacity:1;fill-rule:nonzero;stroke:none"/></g></g><g clip-path="url(#cA)" transform="matrix(.13333 0 0 -.13333 0 171.587)"><path d="M140.977 940.844c-5.582 0-10.125-4.543-10.125-10.125v-15.828c0-5.582 4.543-10.121 10.125-10.121h1.429c5.582 0 10.129 4.539 10.129 10.121l-.008 15.828c0 5.582-4.543 10.125-10.125 10.125h-1.425" style="fill:url(#cB);fill-opacity:1;fill-rule:nonzero;stroke:none"/></g><g clip-path="url(#cC)" transform="matrix(.13333 0 0 -.13333 0 171.587)"><g clip-path="url(#cD)"><path d="M139 904v1h-3v1h-2v1h-1v1h-1v2h-1v3h-1v20h1v3h1v1h1v1h1v1h1v1h1v1h11v-1h1v-1h2v-1h1v-2h1v-2h1v-23h-1v-2h-1v-1h-1v-1h-1v-1h-2v-1h-2v-1" style="fill:url(#cE);fill-opacity:1;fill-rule:nonzero;stroke:none"/></g></g><g clip-path="url(#cF)" transform="matrix(.13333 0 0 -.13333 0 171.587)"><path d="M199.926 986.25c-5.578 0-10.125-4.547-10.125-10.129v-1.426c0-5.582 4.547-10.121 10.125-10.121h15.832c5.586 0 10.125 4.539 10.125 10.121v1.434c0 5.578-4.539 10.125-10.125 10.125l-15.832-.004" style="fill:url(#cG);fill-opacity:1;fill-rule:nonzero;stroke:none"/></g><g clip-path="url(#cH)" transform="matrix(.13333 0 0 -.13333 0 171.587)"><g clip-path="url(#cI)"><path d="M197 964v1h-2v1h-2v1h-1v1h-1v2h-1v2h-1v6h1v3h1v2h1v1h1v1h2v1h3v1h20v-1h3v-1h1v-1h2v-2h1v-1h1v-11h-1v-1h-1v-2h-1v-1h-2v-1h-2v-1" style="fill:url(#cJ);fill-opacity:1;fill-rule:nonzero;stroke:none"/></g></g><path d="M332.164 154.141h-92.062c-8.555 0-14.528-6.051-14.528-14.719 0-8.66 5.973-14.711 14.528-14.711h76.007l-.5-3.102c-4.449-26.96-16.632-48.59-37.254-66.12-20.628-17.419-43.937-25.88-71.265-25.88-30.629 0-56.106 10.512-77.852 32.16-21.754 21.743-32.332 47.2-32.332 77.833 0 30.617 10.571 56.019 32.332 77.668 21.758 21.75 47.223 32.339 77.852 32.339 32.394 0 58.824-11.648 81.074-35.918 5.434-5.441 14.981-4.992 18.75-1.812l2.488 1.812c1.629 1.618 3.661 4.547 3.961 8.5.723 4.34-.488 8.539-3.523 11.93-27.629 29.801-62.192 44.91-102.75 44.91-38.383 0-71.606-13.742-98.727-40.883-27.129-27.128-40.886-60.277-40.886-98.546 0-38.391 13.757-71.602 40.886-98.723C135.484 13.75 168.707 0 207.09 0c38.269 0 71.426 13.75 98.562 40.898 27.114 27.23 40.864 60.512 40.864 98.883 0 8.449-5.907 14.36-14.352 14.36M407.48 240.441c6.172 6.161 13.383 9.168 22.016 9.168h48.809c8.457 0 14.363 6.121 14.363 14.891 0 8.551-5.906 14.539-14.363 14.539h-48.809c-16.691 0-31.172-5.969-43.144-17.769-11.735-11.891-17.684-26.321-17.684-42.891V60.649c0-16.708 5.961-31.16 17.773-42.958C398.316 5.941 412.805 0 429.496 0h48.809c8.457 0 14.363 6.121 14.363 14.89 0 8.66-5.906 14.712-14.363 14.712h-48.809c-8.691 0-15.898 2.968-21.973 8.949-6.101 6.18-9.066 13.418-9.066 22.097v64.063h79.488c8.664 0 14.723 6.211 14.723 15.07 0 8.449-6.059 14.348-14.723 14.348h-79.488v64.25c0 8.672 2.949 15.891 9.023 22.062M630.727 29.61h-55.086c-8.801 0-16.09 2.96-22.223 8.992-6.172 6.18-9.18 13.398-9.18 22.046V264.5c0 8.551-6.054 14.539-14.703 14.539-8.672 0-14.719-5.988-14.719-14.539V60.648c0-16.726 5.957-31.167 17.766-42.957C544.449 5.941 558.941 0 575.641 0h55.086c8.554 0 14.531 6.121 14.531 14.89 0 8.669-5.977 14.72-14.531 14.72M776.176 29.61h-55.098c-8.797 0-16.082 2.96-22.215 9.011-6.172 6.148-9.179 13.36-9.179 22.027V264.5c0 8.551-6.055 14.539-14.727 14.539-8.652 0-14.707-5.988-14.707-14.539V60.648c0-16.726 5.965-31.167 17.773-42.957C689.887 5.941 704.391 0 721.078 0h55.098c8.547 0 14.531 6.121 14.531 14.89 0 8.669-5.984 14.72-14.531 14.72M823.98 279.031c-8.671 0-14.726-5.98-14.726-14.531V14.531C809.254 5.97 815.309 0 824.34 0c8.437 0 14.348 5.969 14.348 14.531V264.5c0 8.551-6.055 14.531-14.708 14.531M912.016 240.422c6.172 6.18 13.437 9.187 22.226 9.187h48.449c8.555 0 14.532 6.121 14.532 14.891 0 8.551-5.977 14.539-14.532 14.539h-48.449c-16.699 0-31.191-5.957-43.152-17.777-11.758-11.91-17.695-26.321-17.695-42.883V14.539c0-8.57 5.906-14.539 14.89-14.539 8.555 0 14.543 5.969 14.543 14.54V124.71h79.863c8.555 0 14.532 6.211 14.532 15.07 0 8.449-5.977 14.36-14.532 14.36h-79.863v64.238c0 8.641 2.996 15.851 9.188 22.043M1179.25 279.031c-8.65 0-14.7-5.98-14.7-14.531v-84.16c0-16.738-5.78-30.641-17.63-42.5-11.87-11.86-25.69-17.629-42.32-17.629-16.72 0-30.64 5.769-42.46 17.598-11.75 11.863-17.47 25.773-17.47 42.531v84.16c0 8.551-6.21 14.531-15.08 14.531-8.66 0-14.71-5.98-14.71-14.531v-84.16c0-21.379 6.91-40.602 20.54-57.149 13.62-16.421 31.17-26.793 52.08-30.78l2.21-.442V14.53C1089.71 5.97 1095.9 0 1104.77 0c8.56 0 14.54 5.969 14.54 14.531V91.97l2.18.43c20.95 4 38.49 14.371 52.12 30.792 13.62 16.43 20.54 35.661 20.54 57.149v84.16c0 8.551-6.14 14.531-14.9 14.531" style="fill:#792587;fill-opacity:1;fill-rule:nonzero;stroke:none" transform="matrix(.13333 0 0 -.13333 0 171.587)"/></svg>