<svg xmlns="http://www.w3.org/2000/svg" viewBox="0 0 40 40" style="color: #dc0909">
  <path id="circle" fill="var(--circle-color, currentColor)" transform="scale(.01, .02) translate(0, -1000)" d="M2371 1088.7c-153.4 2.9-365.7 17.7-532.5 36.9-275.4 31.7-525.3 82.3-762 154.4-33.7 10.3-122.1 39.5-157 52-37.2 13.2-97.5 36-104 39.2-9.7 4.9-22 13.6-29.5 20.9-17.4 16.9-22.7 34.3-15.4 50 11.7 24.9 44.5 33.4 91.8 23.8 16.2-3.3 26.2-6.4 59.6-18.9 187-69.9 375.2-121.6 585.5-160.9 200.6-37.4 452.3-66.6 660-76.6 68.7-3.2 85.9-3.7 170-4.2 104-.6 156.8.6 239 5.7 247.6 15.5 451.8 65 621.5 150.6 147.7 74.5 259.1 168.5 336 283.4 18.6 27.6 42 71.5 54.4 101.5 16.2 39.3 28.7 85.8 34 126.5 5.6 42.7 4.7 90.7-2.5 137.3-16.7 108.8-67.8 218.7-147.6 317.5-35.1 43.5-85.1 93.4-131.9 131.8-80.8 66.3-183.7 125.7-296.4 171.2-179.3 72.3-393.2 117.5-684.5 144.6-249.5 23.2-519.5 24.5-751 3.5-365.4-33.1-668.2-125.8-889.5-272.4-63.3-42-112-81.4-161.5-131C484 2302 433.7 2229.8 404.7 2156c-40.2-102.1-36.2-191.7 11.7-263.4 42.7-64 103.7-100.7 171.7-103.3 22.5-.9 42.6 1.8 68.9 9.4 8.8 2.5 10.9 2.7 28.5 2.7 15.8 0 20.7-.4 29-2.2 31.6-6.8 60.5-21.8 77.8-40.2 8.3-8.8 12-15.1 14.3-24.1 5-19.4-7.2-36.8-32-45.8-11.1-4-33.6-9.4-51.6-12.5-48.1-8.2-105.4-7.7-158 1.4-138.8 24.1-264.2 103.1-329.3 207.4-33.3 53.5-50.7 113.2-50.7 174.6 0 101.1 37.2 202.3 110.3 300 113.9 152 320.1 295.3 561.7 390.5 321.1 126.5 707.2 176.4 1205.5 156 420.9-17.3 725-67.2 988.5-162.2 331.2-119.5 573.7-312.5 693.5-552.3 71-141.9 89.5-292.1 53.5-435.1-22.1-88-66.4-172.9-129.3-248-109.1-130.3-262.2-232.7-455.7-304.7-210.3-78.3-469.4-117.1-774.5-116-30.2.1-60.6.3-67.5.5z"/>
</svg>
