<svg xmlns="http://www.w3.org/2000/svg" width="512" height="512"><path d="M268.25 587.469c-66.177-.246-134.118 28.738-172.895 83.313-40.354 55.966-50.526 129.85-37.168 196.593 9.383 44.547 35.438 86.648 75.324 109.925 45.497 27.514 100.973 31.633 152.825 25.698 26.024-3.155 51.643-10.108 75.445-20.998v-49.344c-53.493 22.18-114.648 32.986-171.5 17.063-39.943-11.258-72.41-45.687-81.195-86.248-10.488-41.288-7.94-85.688 5.351-125.971 14.234-40.257 45.098-75.084 85.622-89.731 40.437-15.829 86.89-17.279 128.16-3.613 36.781 13.492 66.756 45.244 75.933 83.305 9.54 34.836 8.442 73.321-5.035 106.856-5.941 14.13-19.37 28.541-36.117 25.308-9.266-1.493-16.502-9.35-17.406-18.625-4.944-23.365 1.127-47.25.735-70.868 1.274-23.888 2.543-47.777 3.859-71.663-37.708-11.29-78.44-18.553-117.344-9.438-39.39 10.798-69.605 46.245-76.197 86.4-5.756 29.898-3.255 62.19 10.572 89.382 12.785 23.307 37.535 39.899 64.371 40.928 29.609 2.78 61.15-9.581 77.972-34.585 10.954 25 40.266 39.22 66.907 34.157 31.78-4.361 57.426-29.232 68.625-58.407 18.515-43.252 17.68-93.05 4.844-137.75-15.306-49.335-53.395-91.55-102.56-108.73-25.182-9.475-52.218-13.486-79.128-12.957zm-3.125 143.406c10.465-.034 20.972.817 31.125 3.031-2.974 34.085.672 69.773-12.43 102.06-6.27 13.636-19.976 24.236-35.258 24.034-15.995 1.568-33.762-7.832-37.499-24.325-7.147-21.885-5.038-46.108 1.5-67.831 7.326-19.957 25.97-36.498 47.937-36.719a70.835 70.835 0 0 1 4.625-.25z" style="font-size:20px;font-style:normal;font-variant:normal;font-weight:400;font-stretch:normal;text-align:start;line-height:125%;letter-spacing:0;word-spacing:0;writing-mode:lr-tb;text-anchor:start;fill:#888;fill-opacity:1;stroke:none;font-family:Open Sans;-inkscape-font-specification:Sans" transform="translate(0 -540.362)"/></svg>