<svg xmlns="http://www.w3.org/2000/svg" viewBox="615 7.79 210 210"><rect x="615" y="7.79" width="210" height="210" fill="#f7df1e"/><path d="M751.582 185.148l13.439-7.778c1.295 1.625 2.402 3.268 3.757 4.672 5.097 5.281 11.301 6.47 18.175 4.463 2.835-.827 4.993-2.639 5.65-5.696.556-2.588.091-5.046-1.887-6.916-1.168-1.104-2.519-2.108-3.956-2.812-3.653-1.787-7.395-3.392-11.111-5.046-4.25-1.892-8.342-4.037-11.819-7.196-4.562-4.146-6.821-9.355-7.197-15.461-.277-4.502.397-8.796 2.637-12.76 2.788-4.931 6.983-8.186 12.337-9.85 7.268-2.257 14.525-2.114 21.581.863 5.155 2.175 8.676 6.157 11.452 11.028l-12.947 8.316c-.565-.845-1.067-1.649-1.621-2.415-1.524-2.107-3.425-3.716-6.021-4.327-1.969-.463-3.948-.533-5.911.042-6.2 1.815-6.266 9.098-3.083 11.974 1.394 1.261 3.041 2.326 4.731 3.159 3.244 1.598 6.613 2.941 9.909 4.436 4.436 2.012 8.732 4.259 12.419 7.518 4.755 4.202 7.038 9.54 7.342 15.809.201 4.156-.293 8.186-2.142 11.97-2.563 5.246-6.789 8.641-12.132 10.735-4.943 1.937-10.101 2.508-15.378 2.266-5.135-.235-10.066-1.285-14.697-3.569-5.691-2.808-10.049-7.012-13.101-12.572-.134-.243-.249-.496-.426-.853zM725.92 120.301h16.696c0 .347.003 37.856-.003 56.285-.001 3.808-.366 7.569-1.64 11.191-2.174 6.182-6.281 10.537-12.495 12.663-7.456 2.552-14.964 2.507-22.327-.396-6.233-2.458-10.496-7.042-13.414-13.099l13.546-8.197c.877 1.381 1.659 2.712 2.539 3.974 1.577 2.259 3.572 3.986 6.407 4.399 1.874.273 3.756.224 5.587-.348 3.054-.955 4.32-3.329 4.778-6.24.23-1.463.31-2.963.312-4.446.021-18.176.013-36.351.013-54.526l.001-1.26z"/><path d="M647.119 119.687l-16.619 1.61 7.842 80.959h16.775l-7.998-82.569zm41.115-80.631l-16.674-.888-8.733 164.088h16.721l8.686-163.2z"/></svg>
