<svg xmlns="http://www.w3.org/2000/svg" viewBox="20 0 91 60"><path d="M38.29 46.73c.99 1.72 3.19 2.3 4.9 1.31 1.72-.99 2.3-3.19 1.31-4.9v-.01L35.53 27.6l-8.61-.55 11.37 19.68zm13.99 4.49 25.06-43.3c1.37-2.37 3.31-4.2 5.56-5.42h-3.52c-4.65 0-8.7 2.53-10.88 6.28L46.06 47.63c-1.49 2.57-4.78 3.46-7.35 1.97a5.393 5.393 0 0 1-1.97-1.97L25.38 27.95l-3.82 7.73 8.97 15.54a12.56 12.56 0 0 0 10.88 6.28c4.64 0 8.69-2.53 10.87-6.28zm40.53-37.95a3.59 3.59 0 0 0-6.21 0 3.596 3.596 0 0 0 0 3.59l8.97 15.54 8.61.56-11.37-19.69zm7.79-4.49C98.43 5.03 94.37 2.5 89.73 2.5c-4.65 0-8.7 2.53-10.88 6.28l-25.06 43.3a14.15 14.15 0 0 1-5.56 5.41h3.52c4.65 0 8.7-2.53 10.88-6.28l22.43-38.85c1.49-2.57 4.78-3.46 7.35-1.97.85.49 1.51 1.18 1.97 1.97l11.36 19.68 3.82-7.73-8.96-15.53z" fill="#fff"/></svg>
