<svg xmlns="http://www.w3.org/2000/svg" width="61.1mm" height="65.5mm" viewBox="0 0 216.4144 232.00976">
  <path fill="#2b90d9" d="M 211.8 139.1 c -3.2 16.4 -28.5 34.3 -57.6 37.7 c -15.2 1.8 -30.1 3.5 -46 2.7 c -26 -1.2 -46.6 -6.2 -46.6 -6.2 c 0 2.5 0.2 4.9 0.5 7.2 c 3.4 25.7 25.5 27.2 46.4 27.9 c 21.1 0.7 39.9 -5.2 39.9 -5.2 l 0.9 19.1 s -14.8 7.9 -41.1 9.4 c -14.5 0.8 -32.5 -0.4 -53.5 -5.9 C 9.2 213.8 1.4 165.3 0.2 116.1 c -0.4 -14.6 -0.1 -28.4 -0.1 -39.9 c 0 -50.3 33 -65.1 33 -65.1 C 49.7 3.5 78.2 0.2 107.9 0 h 0.7 c 29.7 0.2 58.2 3.5 74.8 11.1 c 0 0 33 14.8 33 65.1 c 0 0 0.4 37.1 -4.6 62.9"/>
  <path fill="#ffffff" d="M 177.5 80.1 v 60.9 h -24.1 v -59.1 c 0 -12.5 -5.2 -18.8 -15.7 -18.8 c -11.6 0 -17.4 7.5 -17.4 22.4 v 32.4 H 96.2 V 85.4 c 0 -14.8 -5.8 -22.4 -17.4 -22.4 c -10.5 0 -15.7 6.3 -15.7 18.8 v 59.1 H 38.9 V 80.1 c 0 -12.5 3.2 -22.4 9.5 -29.7 c 6.6 -7.3 15.2 -11.1 25.9 -11.1 c 12.4 0 21.7 4.7 27.9 14.2 l 6 10.1 l 6 -10.1 c 6.2 -9.5 15.5 -14.2 27.9 -14.2 c 10.7 0 19.3 3.8 25.9 11.1 c 6.4 7.3 9.5 17.2 9.5 29.7"/>
</svg>
